<svg width="784" height="800" viewBox="0 0 784 800" fill="none" xmlns="http://www.w3.org/2000/svg">
<path d="M370.912 161.348C380.663 167.92 391.705 172.453 403.23 174.702L403.35 174.731C431.906 180.276 461.941 171.08 482.535 150.541C503.424 129.684 512.598 98.8607 506.523 69.9789C500.586 41.8418 480.687 17.7581 454.124 6.70857C426.954 -4.59807 395.274 -1.46474 370.861 14.9828C346.448 31.4304 331.665 59.6265 331.935 89.0684C332.208 117.83 347.076 145.304 370.912 161.348Z" fill="#F0C00C"/>
<path d="M743.251 178.689C738.59 177.421 733.765 176.786 728.938 176.786C717.599 176.786 706.725 176.859 696.156 181.718C694.437 182.506 692.763 183.386 691.14 184.35C689.883 185.095 689.079 185.733 688.037 186.023C682.022 186.011 672.616 185.992 669.904 186.03C662.255 186.03 654.74 188.676 648.788 193.478C647.613 194.421 646.938 195.903 645.417 195.809C643.058 195.661 640.695 195.514 638.333 195.367C610.702 193.64 583.076 191.912 555.442 190.184C517.487 187.815 479.529 185.443 441.581 183.072C418.326 181.619 395.118 178.712 371.831 178.712C336.968 178.712 321.554 189.398 315.606 192.908C296.737 204.059 282.916 221.291 275.025 241.622C264.576 268.548 254.12 295.476 243.675 322.409C233.109 349.618 218.995 376.258 208.429 403.468C208.202 404.068 207.968 404.668 207.738 405.26C206.507 408.445 205.505 411.715 204.553 414.99C199.467 432.498 204.111 434.563 200.869 443.875C197.61 454.447 198.949 450.089 195.69 460.662C185.155 494.843 174.566 529.005 163.894 563.144C161.502 570.806 156.728 586.145 156.728 586.145C156.728 586.145 152.919 590.164 151.787 591.309C148.342 594.793 144.86 598.25 141.363 601.679C127.795 614.98 114.008 628.06 100.184 641.086C75.7779 664.082 51.1589 686.839 26.5266 709.587C22.0999 713.673 17.6276 717.713 13.2485 721.844C3.05046 731.33 -1.76287 745.684 0.585699 759.404C5.43712 787.772 38.3456 802.905 63.0256 788.17C68.5646 784.863 73.6427 780.57 78.8141 776.741C91.2693 767.528 103.717 758.313 116.168 749.097C145.037 727.61 173.861 706.037 202.254 683.926C213.094 675.486 224.033 667.101 234.252 657.915C249.145 644.526 262.309 612.938 267.284 601.671C275.297 583.513 283.115 565.26 291.019 547.052C320.587 565.877 409.922 623.98 409.922 623.98C409.922 623.98 426.15 673.433 431.518 691.252C436.448 707.617 441.213 724.031 445.975 740.446C449.108 751.263 451.541 762.535 455.465 773.094C465.461 799.979 500.495 808.829 522.061 789.905C531.979 781.204 537.299 768.023 536.139 754.871C535.116 743.324 532.767 731.795 531.013 720.341C525.649 685.29 520.24 650.221 513.554 615.391C510.571 599.841 507.929 583.591 501.962 568.845C498.956 561.424 496.529 555.393 462.39 526.742L390.139 467.422L424.377 379.201C429.169 383.773 433.952 388.35 438.733 392.923C448.202 401.982 461.364 404.639 473.815 401.176C481.727 398.973 489.642 396.771 497.554 394.561C502.133 393.289 506.653 394.346 511.367 393.418C515.084 392.683 518.764 391.713 522.449 390.853C523.472 390.613 527.583 389.573 529.975 388.961C531.162 389.369 535.186 390.708 538.992 391.473C546.771 393.039 554.714 392.759 562.43 390.961C573.114 388.472 583.293 385.946 592.207 379.102C614.276 362.142 619.744 330.077 604.472 306.777C597.207 295.693 585.849 287.546 573.032 284.184C561.577 281.175 550.815 282.994 539.558 285.615C533.554 287.013 527.802 288.916 522.445 292.036C519.276 293.885 516.299 296.057 513.577 298.504C512.344 299.615 511.164 300.79 510.04 302.011C505.703 302.912 496.223 305.133 493.537 305.759C491.499 306.232 489.493 306.759 487.545 307.535C485.752 308.249 485.35 309.262 484.27 307.801C476.905 297.805 469.531 287.807 462.162 277.809C485.948 276.323 509.729 274.836 533.504 273.35C567.287 271.239 601.072 269.127 634.855 267.019C638.258 266.803 641.662 266.59 645.07 266.379C646.862 266.264 647.26 267.46 648.786 268.685C654.738 273.491 662.253 276.133 669.902 276.133L688.462 276.127C689.079 276.544 689.696 276.958 690.329 277.346C692.203 278.504 694.15 279.527 696.152 280.449C706.675 285.285 717.62 285.468 728.934 285.38C755.742 285.38 779.172 264.982 782.744 238.384C786.332 211.742 769.218 185.762 743.251 178.689Z" fill="#F0C00C"/>
</svg>
