<svg width="51" height="51" viewBox="0 0 51 51" fill="none" xmlns="http://www.w3.org/2000/svg">
<g clip-path="url(#clip0_33_513)">
<path d="M19.1121 49.751V32.993H13.9167V25.2923H19.1121V21.9743C19.1121 13.3958 22.9929 9.42049 31.4139 9.42049C32.256 9.42049 33.4194 9.50869 34.4967 9.63679C35.3036 9.71982 36.1041 9.85662 36.8928 10.0463V17.0288C36.4368 16.9863 35.9794 16.961 35.5215 16.9532C35.0085 16.9399 34.4954 16.9336 33.9822 16.9343C32.4975 16.9343 31.3383 17.1359 30.4647 17.5832C29.8774 17.8778 29.3837 18.3301 29.0388 18.8894C28.497 19.7714 28.2534 20.9789 28.2534 22.5686V25.2923H36.4833L35.6727 29.7086L35.07 32.993H28.2534V50.3075C40.7316 48.7997 50.4 38.1758 50.4 25.2923C50.4 11.3756 39.1167 0.0922852 25.2 0.0922852C11.2833 0.0922852 0 11.3756 0 25.2923C0 37.1111 8.1354 47.0273 19.1121 49.751Z" fill="white"/>
</g>
<defs>
<clipPath id="clip0_33_513">
<rect width="50.4" height="50.4" fill="white"/>
</clipPath>
</defs>
</svg>
