<svg width="100" height="97" viewBox="0 0 100 97" fill="none" xmlns="http://www.w3.org/2000/svg">
<path d="M95.4546 0.000303128H62.1212C62.0939 0.000303128 62.0673 0.00394093 62.04 0.00424408C61.9615 0.00575982 61.8833 0.0109134 61.8055 0.0160669C61.73 0.0212205 61.6548 0.0263739 61.5803 0.0351653C61.5148 0.0430472 61.45 0.0542638 61.3849 0.0651772C61.3009 0.078819 61.2167 0.0924606 61.1342 0.11065C61.0785 0.123079 61.0239 0.138843 60.9685 0.153394C60.8809 0.176433 60.793 0.199169 60.7076 0.227362C60.653 0.245248 60.6 0.266468 60.5464 0.286476C60.4639 0.317094 60.3812 0.347106 60.3009 0.381968C60.2403 0.408646 60.1812 0.439264 60.1215 0.468366C60.0515 0.502622 59.9812 0.535969 59.9133 0.573862C59.8458 0.611453 59.7812 0.653287 59.7155 0.694213C59.6582 0.730287 59.5997 0.764847 59.5442 0.803347C59.4773 0.849425 59.413 0.899748 59.3485 0.949768C59.2964 0.990087 59.2433 1.0295 59.193 1.07194C59.1339 1.12196 59.0773 1.17561 59.0203 1.22927C58.967 1.27899 58.9136 1.3284 58.863 1.38085C58.8145 1.43056 58.7682 1.48331 58.7221 1.53576C58.6664 1.59851 58.6118 1.66187 58.5594 1.72765C58.5436 1.74735 58.5264 1.76524 58.5106 1.78525L51.1591 11.4027L41.093 1.33234C41.0891 1.3284 41.0848 1.32537 41.0809 1.32143C40.9785 1.21987 40.8715 1.12256 40.7597 1.03101C40.7085 0.988874 40.6542 0.952496 40.6018 0.912783C40.5358 0.86337 40.4709 0.812138 40.4024 0.766059C40.3394 0.723921 40.2742 0.687543 40.2097 0.64874C40.1467 0.61115 40.0852 0.57174 40.0206 0.536878C39.9552 0.502016 39.8879 0.472307 39.8212 0.44078C39.7533 0.408646 39.6867 0.374996 39.6173 0.345894C39.5527 0.319217 39.487 0.297996 39.4215 0.27435C39.347 0.24737 39.2733 0.218874 39.1973 0.195835C39.1324 0.17613 39.0664 0.161882 39.0009 0.145209C38.923 0.125504 38.8458 0.103677 38.7661 0.0879134C38.6906 0.0730591 38.6145 0.0642676 38.5385 0.0530511C38.4679 0.042744 38.3982 0.0294055 38.3267 0.022433C38.187 0.0087913 38.047 0.00212196 37.9067 0.00121251C37.8976 0.00121251 37.8885 0 37.8791 0H4.54545C2.03515 0 0 2.03595 0 4.54724V37.8858C0 40.3971 2.03515 42.4331 4.54545 42.4331H18.1818V92.4528C18.1818 94.9641 20.217 97 22.7273 97H77.2727C79.783 97 81.8182 94.9641 81.8182 92.4528V42.4331H95.4546C97.9649 42.4331 100 40.3971 100 37.8858V4.54755C100 2.03626 97.9649 0.000303128 95.4546 0.000303128ZM9.09091 33.3389V9.09479H35.9961L45.5882 18.6907L27.2727 42.6507V37.8861C27.2727 35.3748 25.2376 33.3389 22.7273 33.3389H9.09091ZM27.2727 87.9058V60.6224H42.6445L36.8397 72.2342C35.717 74.4802 36.6267 77.2119 38.8721 78.3354C39.5249 78.6619 40.2185 78.8165 40.9018 78.8165C42.5691 78.8165 44.1742 77.8952 44.9709 76.3022L49.9994 66.2434L55.0279 76.3022C55.8245 77.8955 57.4297 78.8165 59.097 78.8165C59.7803 78.8165 60.4739 78.6616 61.1264 78.3354C63.3718 77.2119 64.2815 74.4805 63.1588 72.2342L57.3539 60.6224H72.7273V87.9058H27.2727ZM90.9091 33.3389H77.2727C74.7624 33.3389 72.7273 35.3748 72.7273 37.8861V51.5279H31.9315L64.3673 9.09479H90.9091V33.3389Z" fill="#F0C00C"/>
</svg>
