<svg width="51" height="51" viewBox="0 0 51 51" fill="none" xmlns="http://www.w3.org/2000/svg">
<g clip-path="url(#clip0_33_515)">
<path d="M14.7632 0.176435C12.0819 0.302855 10.2509 0.730835 8.65007 1.35958C6.99359 2.00533 5.58932 2.87158 4.19219 4.27375C2.79527 5.67592 1.93469 7.08103 1.29377 8.74045C0.673431 10.3444 0.253011 12.1771 0.134571 14.8598C0.0161313 17.5426 -0.0101187 18.4051 0.00311134 25.2485C0.0161313 32.0916 0.0463713 32.9495 0.176361 35.6379C0.304461 38.3185 0.730761 40.1491 1.35971 41.7503C2.00651 43.407 2.87171 44.8107 4.27451 46.2082C5.6771 47.6058 7.08116 48.4643 8.74436 49.1062C10.3471 49.7257 12.1802 50.148 14.8625 50.2654C17.5448 50.383 18.4081 50.4103 25.2495 50.3971C32.0909 50.3841 32.9523 50.3536 35.6399 50.2262C38.3279 50.0987 40.1486 49.6692 41.7505 49.0432C43.4072 48.3952 44.8119 47.5312 46.2084 46.1282C47.6049 44.725 48.4648 43.3188 49.1053 41.6586C49.7263 40.0559 50.1482 38.223 50.2645 35.5425C50.3821 32.8526 50.4098 31.994 50.3968 25.1517C50.3836 18.3093 50.3527 17.4515 50.2252 14.7641C50.0978 12.0767 49.6708 10.2518 49.0423 8.64952C48.3947 6.99283 47.5303 5.59024 46.1284 4.19164C44.7262 2.79304 43.3188 1.93372 41.6593 1.29469C40.0554 0.674135 38.2235 0.251405 35.5412 0.135485C32.8589 0.0195652 31.9956 -0.0104647 25.1517 0.00297526C18.3078 0.0159953 17.451 0.0453953 14.7632 0.176435ZM15.0576 45.7319C12.6006 45.6251 11.2665 45.2168 10.3773 44.8751C9.20006 44.4216 8.36132 43.8732 7.47533 42.9956C6.58913 42.1183 6.04502 41.2766 5.58533 40.1018C5.24009 39.2127 4.82429 37.88 4.70942 35.423C4.58447 32.7676 4.55822 31.9702 4.54352 25.2422C4.52882 18.5145 4.55465 17.7179 4.67099 15.0614C4.77599 12.6065 5.18675 11.2709 5.52779 10.3822C5.98139 9.2035 6.52781 8.36623 7.40729 7.48087C8.28677 6.5953 9.12593 6.04993 10.3017 5.59024C11.19 5.24353 12.5225 4.8313 14.9784 4.71433C17.636 4.58833 18.4323 4.56313 25.1592 4.54843C31.8862 4.53373 32.6846 4.55893 35.3432 4.67611C37.7981 4.78279 39.1343 5.18956 40.022 5.53291C41.1997 5.98651 42.038 6.53125 42.9233 7.41241C43.8089 8.29315 44.3547 9.12937 44.8144 10.3077C45.1615 11.1932 45.574 12.5253 45.6899 14.9829C45.8163 17.6405 45.8451 18.4374 45.857 25.1637C45.8692 31.89 45.8455 32.6888 45.7289 35.3445C45.6218 37.8015 45.2144 39.1361 44.8721 40.0262C44.4185 41.2031 43.8719 42.0422 42.9918 42.9272C42.1119 43.8123 41.2738 44.3575 40.0974 44.8172C39.2103 45.1635 37.8762 45.5768 35.4223 45.6937C32.7646 45.8187 31.9683 45.8449 25.2388 45.8596C18.5094 45.8743 17.7151 45.847 15.0576 45.7319ZM35.6013 11.7315C35.6023 12.3296 35.7806 12.914 36.1138 13.4108C36.447 13.9076 36.92 14.2944 37.473 14.5223C38.026 14.7502 38.6342 14.809 39.2206 14.6912C39.8071 14.5735 40.3454 14.2845 40.7676 13.8607C41.1897 13.437 41.4767 12.8975 41.5923 12.3107C41.7078 11.7238 41.6468 11.1158 41.4168 10.5637C41.1868 10.0115 40.7982 9.53996 40.3002 9.20866C39.8022 8.87736 39.2171 8.70119 38.619 8.70244C37.8172 8.70411 37.0489 9.02413 36.483 9.59215C35.9171 10.1602 35.5999 10.9297 35.6013 11.7315ZM12.2608 25.2252C12.2749 32.372 18.0791 38.1522 25.2241 38.1388C32.3696 38.1251 38.1538 32.3216 38.1404 25.1748C38.1267 18.0281 32.3213 12.2462 25.175 12.2603C18.0287 12.2743 12.2474 18.0794 12.2608 25.2252ZM16.8 25.2162C16.7967 23.5549 17.2861 21.9298 18.2064 20.5467C19.1267 19.1635 20.4364 18.0842 21.97 17.4454C23.5037 16.8066 25.1923 16.6369 26.8224 16.9578C28.4524 17.2787 29.9507 18.0757 31.1278 19.2481C32.3049 20.4206 33.1079 21.9157 33.4353 23.5445C33.7626 25.1733 33.5996 26.8625 32.9669 28.3987C32.3342 29.9348 31.2602 31.2489 29.8807 32.1746C28.5012 33.1004 26.8781 33.5963 25.2168 33.5996C24.1136 33.6019 23.0208 33.3869 22.0008 32.9668C20.9807 32.5468 20.0534 31.9299 19.2718 31.1514C18.4902 30.3729 17.8696 29.448 17.4455 28.4297C17.0214 27.4113 16.802 26.3194 16.8 25.2162Z" fill="white"/>
</g>
<defs>
<clipPath id="clip0_33_515">
<rect width="50.4" height="50.4" fill="white"/>
</clipPath>
</defs>
</svg>
