<svg width="616" height="800" viewBox="0 0 616 800" fill="none" xmlns="http://www.w3.org/2000/svg">
<path d="M152.32 280.89L174.455 286.531C189.843 290.451 205.564 281.157 209.485 265.742C210.072 263.449 210.258 261.182 210.298 258.928C229.927 250.914 243.741 231.686 243.741 209.177C243.741 179.495 219.672 155.426 189.99 155.426C160.307 155.426 136.239 179.495 136.239 209.177C136.239 216.965 137.932 224.352 140.919 231.019C136.465 234.753 133.065 239.82 131.518 245.874C127.598 261.288 136.919 276.983 152.32 280.89Z" fill="#F0C00C"/>
<path d="M144.639 358.67C152.413 355.976 167.615 344.295 182.389 296.918C182.109 296.918 181.843 296.971 181.576 296.971C178.456 296.971 175.295 296.585 172.255 295.798L150.12 290.171C140.359 287.691 132.132 281.543 126.985 272.863C121.838 264.209 120.371 254.048 122.838 244.274C124.251 238.793 126.838 233.753 130.465 229.459C128.358 223.112 127.291 216.538 127.291 209.804C127.291 206.044 127.691 202.404 128.305 198.843C113.584 208.657 99.7157 219.872 92.4351 230.979C66.8996 269.996 93.5552 315.52 115.93 348.842C121.491 356.483 135.265 362.817 144.639 358.67Z" fill="#F0C00C"/>
<path d="M233.354 143.692C273.033 143.692 305.2 111.525 305.2 71.846C305.2 32.1665 273.033 0 233.354 0C193.674 0 161.508 32.1665 161.508 71.846C161.508 111.525 193.674 143.692 233.354 143.692Z" fill="#F0C00C"/>
<path d="M582.929 171.868C562.168 163.174 539.099 168.521 524.124 183.509C522.044 182.655 519.884 181.975 517.551 181.628C508.79 180.335 500.429 183.242 494.282 188.709C490.402 187.256 486.108 186.295 481.201 186.295C418.236 186.295 355.324 186.295 292.372 186.295C289.692 186.295 287.198 186.589 284.824 187.056C272.13 165.254 245.315 153.039 219.352 154.426C239.154 164.974 252.702 185.829 252.702 209.791C252.702 233.473 239.581 254.755 218.779 265.462C218.619 266.516 218.432 267.542 218.166 268.529C214.365 283.477 191.47 297.851 191.47 297.851C179.096 338.321 164.214 361.657 147.186 367.231C144.466 368.111 141.933 368.471 139.679 368.471C135.505 368.471 132.398 367.337 130.385 366.377C128.558 392.459 127.585 418.608 127.438 444.784C127.425 447.437 127.545 450.051 127.771 452.518C83.421 545.965 34.6303 637.333 2.44093 735.981C-15.5072 790.933 70.82 814.268 88.6081 759.73C116.544 674.203 158.187 594.636 197.204 513.829C265.45 574.274 286.758 664.629 289.838 756.81C291.758 814.308 381.153 814.481 379.219 756.81C375.325 640.36 344.283 529.284 261.222 451.851C261.383 449.877 261.529 447.851 261.543 445.784C261.916 381.218 266.53 318.613 283.211 256.648C286.051 257.341 289.051 257.795 292.385 257.795C355.324 257.795 418.262 257.795 481.214 257.795C485.615 257.795 489.442 256.968 493.015 255.808C496.682 258.515 500.963 260.488 505.803 261.208C511.977 262.115 517.964 260.942 523.138 258.275C528.151 263.609 534.299 268.009 541.459 271.023C568.862 282.49 600.344 269.596 611.798 242.193C623.253 214.791 610.318 183.309 582.929 171.868Z" fill="#F0C00C"/>
</svg>
