<svg width="192" height="175" viewBox="0 0 192 175" fill="none" xmlns="http://www.w3.org/2000/svg">
<path d="M16.5922 132.209C25.7558 132.209 33.1844 124.78 33.1844 115.617C33.1844 106.453 25.7558 99.0245 16.5922 99.0245C7.42859 99.0245 0 106.453 0 115.617C0 124.78 7.42859 132.209 16.5922 132.209Z" fill="#F0C00C"/>
<path d="M188.98 159.985L155.054 132.847C152.151 130.519 148.03 130.49 145.094 132.773L125.247 148.167C125.164 147.849 125.096 147.53 124.97 147.215L112.74 117.005V92.1969C112.74 87.7513 109.138 84.1487 104.692 84.1487C100.246 84.1487 96.6439 87.7513 96.6439 92.1969V118.573C96.6439 119.606 96.8436 120.636 97.2331 121.593L104.595 139.778H73.9929L78.2361 133.646C79.4659 131.869 79.7201 129.596 78.9185 127.593L74.9847 117.755L77.718 120.379C78.967 121.576 80.5735 122.175 82.1767 122.175C83.8671 122.175 85.5571 121.512 86.8223 120.198C89.2849 117.633 89.2044 113.56 86.6388 111.095L67.0331 92.2551C65.974 91.2408 64.5994 90.6132 63.138 90.4843L45.8472 88.9585L47.5632 84.9567C48.3583 83.0926 50.6022 81.1868 52.5659 80.6976L73.9612 75.3535L114.154 73.8018C115.242 73.7601 116.311 73.4962 117.3 73.0292L155.364 54.9369C159.379 53.0277 161.085 48.2279 159.179 44.2133C157.273 40.202 152.48 38.4924 148.455 40.3983L111.884 57.7793L84.636 58.832L104.171 50.5455C106.913 49.3803 108.791 46.7951 109.044 43.8238L112.061 8.73351C112.441 4.30713 109.161 0.405254 104.731 0.025503C100.33 -0.322265 96.4059 2.92615 96.0228 7.35557L93.4218 37.6202L66.1221 49.2032L36.7591 56.0923C34.821 56.6814 32.4452 58.5906 31.4537 60.3547L14.7231 87.5415C13.7317 89.3056 14.472 91.2855 16.3812 91.9679L36.5019 101.474C37.384 101.79 55.6244 102.875 59.1206 103.078C57.54 104.842 56.9765 107.401 57.9168 109.751L65.6784 129.16L58.2739 139.861C58.0807 140.141 57.9359 140.438 57.7942 140.734C57.0411 141.403 56.5418 142.356 56.5418 143.448V166.269C56.5418 168.297 58.1837 169.939 60.2118 169.939H118.548C120.828 170.47 123.313 170.042 125.306 168.497L149.949 149.374L178.923 172.55C180.407 173.738 182.181 174.314 183.945 174.314C186.305 174.314 188.645 173.281 190.236 171.294C193.013 167.824 192.45 162.76 188.98 159.985Z" fill="#F0C00C"/>
<path d="M36.8838 136.758C27.725 136.758 20.2949 144.182 20.2949 153.354C20.2949 162.522 27.725 169.94 36.8838 169.94C46.0459 169.94 53.476 162.519 53.476 153.354C53.476 144.182 46.0456 136.758 36.8838 136.758Z" fill="#F0C00C"/>
</svg>
