<svg width="192" height="146" viewBox="0 0 192 146" fill="none" xmlns="http://www.w3.org/2000/svg">
<path d="M190.209 125.306L172.45 103.107L175.982 73.4275C176.182 71.7626 175.861 70.1565 175.155 68.7666C174.994 68.3215 174.752 67.9032 174.383 67.5494C173.919 66.931 173.356 66.398 172.731 65.9334L134.239 28.3542C132.927 27.1145 130.899 27.2092 129.705 28.57L125.449 33.441C125.028 33.7187 124.619 34.0328 124.243 34.3995L103.579 54.5205L97.4061 53.4901C97.648 52.3811 97.6774 51.2132 97.4225 50.0327C96.4705 45.6198 92.1165 42.8164 87.7001 43.7685L73.922 46.7453L72.3125 44.7858L74.0821 42.6728C75.2206 41.2692 75.0961 39.1103 73.8009 37.8477L56.9478 21.4003C55.6524 20.1377 53.6963 20.2618 52.5712 21.6784L18.9659 64.0297C16.5584 65.7603 15.1585 68.7173 15.6262 71.8508L20.7095 105.936L1.78238 129.682C-1.03091 133.215 -0.451766 138.357 3.08093 141.174C4.58918 142.374 6.3882 142.957 8.17422 142.957C10.5784 142.957 12.96 141.903 14.576 139.875L35.7209 113.349C37.1374 111.576 37.7491 109.293 37.4152 107.045L34.7948 89.4763C34.9652 89.3419 35.1482 89.2471 35.2987 89.0641L37.3009 86.6695L49.7052 103.935L54.3962 135.967C54.9915 140.033 58.4852 142.96 62.4793 142.96C62.8717 142.96 63.2709 142.931 63.6732 142.872C68.1415 142.217 71.2329 138.063 70.5789 133.595L65.6032 99.5938C65.4137 98.2987 64.9163 97.0685 64.1542 96.0057L48.1351 73.7124L61.6481 57.5531L64.4645 60.9814C66.038 62.8951 68.3635 63.9678 70.7845 63.9678C71.3602 63.9678 71.939 63.9056 72.5116 63.7814L79.7707 62.2143C80.5592 65.2404 83.0447 67.6774 86.3294 68.2234L104.982 71.3312C105.43 71.4064 105.878 71.442 106.326 71.442C108.439 71.442 110.49 70.6241 112.031 69.1261L123.307 58.148L144.373 81.8441L128.789 101.026C127.605 102.482 126.957 104.304 126.957 106.181V136.859C126.957 141.376 130.618 145.037 135.135 145.037C139.653 145.037 143.313 141.376 143.313 136.859V109.086L157.324 91.8405L155.806 104.578C155.547 106.754 156.169 108.942 157.539 110.653L177.438 135.527C179.054 137.545 181.432 138.595 183.83 138.595C185.619 138.595 187.425 138.01 188.933 136.803C192.456 133.98 193.028 128.831 190.209 125.306Z" fill="#F0C00C"/>
<path d="M65.1385 9.47632C64.1341 11.5145 63.5225 13.778 63.5225 16.2051C63.5225 24.6809 70.3918 31.5469 78.8608 31.5469C83.3883 31.5469 87.4153 29.5481 90.2283 26.4276C87.4906 25.2991 72.3253 18.7338 65.1385 9.47632Z" fill="#F0C00C"/>
<path d="M95.0699 37.8963C103.745 33.274 110.745 19.2832 113.192 13.8598C111.105 12.7966 108.78 12.1422 106.28 12.1422C101.249 12.1422 96.8265 14.5956 94.0296 18.3376C94.1312 17.6408 94.2095 16.9344 94.2095 16.2082C94.2095 7.73578 87.3367 0.869813 78.8674 0.869813C73.784 0.869813 69.3123 3.37216 66.5219 7.17989C66.6003 7.29107 66.6985 7.39575 66.7802 7.50726C66.1586 6.93804 65.4293 6.64043 64.6507 6.54875C64.1598 5.54439 64.569 3.17306 65.1283 1.64874C65.3606 1.01417 65.0366 0.307428 64.399 0.0751529C63.7774 -0.157122 63.0642 0.166832 62.8254 0.801397C62.5637 1.51122 61.5853 4.44561 62.1416 6.75194C60.8102 7.08548 59.7176 7.63178 59.4757 7.7628C58.8771 8.08333 58.6578 8.826 58.9783 9.42122C59.1976 9.83344 59.6228 10.0691 60.061 10.0691C60.2574 10.0691 60.4534 10.0199 60.6367 9.92511C61.7393 9.33297 64.438 8.38779 65.2655 9.39523C65.6972 9.92169 66.4662 9.99387 66.9926 9.56524C67.3785 9.24779 67.516 8.74732 67.3919 8.29611C74.3464 16.9484 89.2431 23.3666 91.3042 24.2266C91.2289 24.5701 91.2125 24.9299 91.1602 25.2799L91.1342 25.3421C91.1438 25.3326 91.1472 25.3192 91.1571 25.3062C91.0521 26.026 90.9378 26.7457 90.9378 27.4945C90.9351 31.5174 92.5251 35.1582 95.0699 37.8963Z" fill="#F0C00C"/>
<path d="M121.253 13.4376C121.887 13.6699 122.591 13.3459 122.83 12.7083C123.058 12.0867 122.738 11.3738 122.1 11.1381C121.39 10.8764 118.456 9.89841 116.15 10.4543C115.816 9.12291 115.27 8.03029 115.142 7.78844C114.821 7.18979 114.079 6.97052 113.48 7.29105C113.069 7.51032 112.836 7.93554 112.836 8.37374C112.836 8.5701 112.885 8.76611 112.98 8.94947C113.575 10.052 114.521 12.7507 113.51 13.5782C112.987 14.0099 112.912 14.7786 113.34 15.3054C113.772 15.8288 114.541 15.904 115.064 15.4754C115.156 15.4001 115.198 15.302 115.28 15.2202C112.693 20.9381 105.905 34.3468 97.0234 39.6494C99.6045 41.612 102.787 42.8257 106.281 42.8257C114.754 42.8257 121.62 35.9563 121.62 27.4873C121.62 22.417 119.13 17.9517 115.336 15.1614C115.948 14.5268 116.258 13.7711 116.353 12.9631C117.357 12.4695 119.725 12.8783 121.253 13.4376Z" fill="#F0C00C"/>
</svg>
