<svg width="172" height="192" viewBox="0 0 172 192" fill="none" xmlns="http://www.w3.org/2000/svg">
<path d="M91.4708 138.596C92.7093 139.722 94.3068 140.326 95.9341 140.326C97.2229 140.326 98.5245 139.954 99.6667 139.174L124.866 122.002C126.208 121.085 127.171 119.71 127.566 118.133L132.139 99.9478C132.892 100.768 133.351 101.406 133.291 101.714L138.043 115.227L117.168 131.523C115.621 132.732 114.551 134.445 114.149 136.368L104.609 181.994C103.672 186.484 106.548 190.881 111.034 191.821C111.606 191.94 112.18 191.997 112.742 191.997C116.59 191.997 120.041 189.307 120.861 185.391L129.778 142.741L135.068 138.609L133.882 140.774C132.511 143.282 132.524 146.317 133.919 148.811L155.68 187.745C157.201 190.465 160.024 191.999 162.937 191.999C164.308 191.999 165.696 191.66 166.978 190.943C170.98 188.708 172.411 183.647 170.173 179.645L150.653 144.72L163.91 120.497C164.305 119.777 164.541 119.02 164.707 118.256C165.072 117.725 165.335 117.113 165.335 116.419V97.3008C165.335 95.4643 164.216 93.0004 162.838 91.788L131.422 63.8758C130.044 62.6638 127.247 63.2215 126.205 64.7294L125.322 66.3502C124.79 66.7885 124.302 67.29 123.913 67.9043L106.239 95.8863L85.8324 111.196C84.2317 112.394 83.3583 114.181 83.2222 116.027L77.4903 111.767C76.381 110.943 75.0395 110.485 73.6549 110.458L49.7976 110.003L55.9479 90.569L75.6639 94.4579C76.2053 94.5642 76.7433 94.6173 77.2777 94.6173C80.8742 94.6173 84.1519 92.2662 85.2246 88.7028L93.0423 62.6801C93.8727 64.4933 94.9815 66.1537 96.3696 67.5487C106.482 63.3577 115.299 46.9756 117.364 42.8978C117.374 43.0572 117.414 43.2166 117.49 43.3695C117.796 43.9869 118.543 44.2328 119.158 43.9307C120.137 43.4459 120.682 42.6356 121.001 41.7324C122.107 41.4768 124.358 42.4196 125.743 43.3198C126.317 43.6952 127.088 43.5323 127.466 42.9579C127.835 42.3936 127.679 41.6164 127.105 41.2378C126.463 40.8194 123.784 39.1854 121.373 39.2121C121.343 37.8209 121.05 36.612 120.977 36.3463C120.798 35.682 120.114 35.2969 119.447 35.4761C118.988 35.6025 118.659 35.9678 118.56 36.4026C118.517 36.5953 118.517 36.8009 118.573 37.0038C118.912 38.2293 119.234 41.1149 118.048 41.7063C117.942 41.7594 117.862 41.8393 117.779 41.9157C115.073 40.0494 111.825 38.9103 108.288 38.9103C105.017 38.9103 101.985 39.8834 99.4014 41.5042L100.504 37.8244C101.822 33.434 99.3316 28.8047 94.9413 27.4833C90.5578 26.1682 85.922 28.6523 84.6002 33.0458L71.4823 76.7149L53.2541 73.1215L69.8618 52.379C72.263 49.3802 72.2928 45.1229 69.9316 42.0908L39.6649 3.20338C36.8488 -0.413231 31.6385 -1.06716 28.0153 1.75208C24.399 4.5682 23.7479 9.78196 26.564 13.4017L52.8092 47.1187L31.7381 73.4303C30.8515 74.5395 30.3303 75.8113 30.091 77.1163L24.7977 90.908C24.0305 92.575 23.1137 95.381 22.7619 97.1813L22.0878 102.528L13.4902 90.41L16.0573 63.8494C16.4094 60.1964 13.736 56.952 10.0864 56.5999C6.45003 56.2346 3.18904 58.9215 2.83689 62.5707L0.0304984 91.5987C-0.122306 93.1896 0.302769 94.7802 1.22272 96.0822L18.2056 120.022C18.9463 121.065 19.9458 121.796 21.0449 122.261C21.4863 122.563 21.9948 122.782 22.6223 122.789L23.4395 122.799C23.5027 122.802 23.5655 122.822 23.6322 122.822C23.6721 122.822 23.7117 122.805 23.7551 122.802L39.6423 123.001C39.9712 123.057 40.3001 123.114 40.6453 123.121L71.2774 123.705L90.9503 138.324C91.1121 138.447 91.3014 138.493 91.4708 138.596ZM93.8022 121.826L115.185 105.783C115.833 105.298 116.384 104.7 116.816 104.016L117.815 102.432L115.298 112.448L96.0467 125.565L92.1644 122.679C92.7329 122.464 93.2941 122.208 93.8022 121.826Z" fill="#F0C00C"/>
<path d="M64.6117 177.504L65.5747 175.209C53.0284 169.946 30.6422 179.47 29.6924 179.878L30.6787 182.163C30.9013 182.071 53.0315 172.659 64.6117 177.504Z" fill="#F0C00C"/>
<path d="M30.851 161.856C39.9502 163.652 48.7906 157.738 50.5871 148.625C50.7632 147.732 50.8063 146.845 50.8396 145.962C50.7003 145.952 50.5642 145.935 50.4277 145.879C40.9497 141.914 24.485 147.47 18.6701 149.678C18.9225 149.522 19.1285 149.286 19.2212 148.977C19.4171 148.316 19.0385 147.625 18.3811 147.429C18.1884 147.373 18.0057 147.353 17.8199 147.33C23.8175 145.032 40.269 139.503 50.7066 143.355C49.8498 136.331 44.6625 130.327 37.3466 128.886C28.244 127.092 19.407 133.01 17.6105 142.123C17.265 143.883 17.2882 145.61 17.4876 147.297C16.7867 147.28 16.1328 147.469 15.5348 147.782C14.5516 147.217 13.5421 144.992 13.1472 143.391C12.9812 142.724 12.3071 142.315 11.6362 142.481C10.9819 142.641 10.5669 143.322 10.7298 143.989C10.9124 144.733 11.7626 147.755 13.5424 149.379C12.6162 150.418 12.0085 151.501 11.8786 151.744C11.5598 152.351 11.7991 153.102 12.4068 153.421C12.8253 153.64 13.3167 153.597 13.6855 153.348C13.848 153.238 13.9876 153.082 14.0873 152.899C14.6753 151.774 16.4086 149.442 17.6772 149.818C17.8897 149.881 18.0988 149.868 18.2981 149.821C18.205 149.857 18.0887 149.901 18.0026 149.934C19.673 155.815 24.4419 160.591 30.851 161.856Z" fill="#F0C00C"/>
<path d="M17.9959 184.863C18.5273 184.424 18.6037 183.641 18.1685 183.109C17.4778 182.266 16.5644 181.914 15.6146 181.804C15.1163 180.785 15.5316 178.377 16.0994 176.83C16.3352 176.185 16.0064 175.468 15.359 175.229C14.728 174.993 14.0043 175.322 13.765 175.966C13.4993 176.687 12.5061 179.666 13.0708 182.007C11.7192 182.349 10.6103 182.904 10.3644 183.033C9.75665 183.359 9.53405 184.113 9.85945 184.717C10.0821 185.136 10.5137 185.375 10.9586 185.375C11.1579 185.375 11.3569 185.325 11.5431 185.229C12.6624 184.628 15.4017 183.668 16.2422 184.69C16.6777 185.225 17.4611 185.298 17.9959 184.863Z" fill="#F0C00C"/>
<path d="M98.5146 69.346C101.274 71.3251 104.628 72.5208 108.285 72.5208C117.56 72.5208 125.092 65.0056 125.092 55.7172C125.092 50.9118 123.053 46.6114 119.825 43.5494C118.247 46.7639 109.47 63.8596 98.5146 69.346Z" fill="#F0C00C"/>
</svg>
