<svg width="649" height="800" viewBox="0 0 649 800" fill="none" xmlns="http://www.w3.org/2000/svg">
<path d="M647.586 247.562C642.651 227.225 622.158 214.746 601.831 219.676L260.127 302.604L198.269 190.51L286.818 207.531C298.543 209.787 310.396 204.467 316.526 194.281C322.671 184.073 321.794 171.114 314.332 161.825L222.839 47.9675C214.228 37.2537 199.438 34.431 187.678 40.5001C192.75 58.2558 192.227 76.8071 186.78 93.8245L221.567 137.114L168.039 126.824L101.12 264.218L144.925 131.608C149.848 116.706 141.759 100.635 126.857 95.7127C111.955 90.7848 95.8842 98.881 90.9615 113.783L57.9288 213.781L65.9138 151.53C65.8721 151.514 65.8305 151.495 65.7888 151.478L22.268 175.495C11.1025 183.157 -2.64067 195.959 0.439043 214.647L20.9687 336.177C23.2737 349.828 35.0941 359.861 49.0023 359.861C61.1718 359.861 72.1028 352.064 75.9694 340.356L78.9431 331.353L119.026 408.913V762.112C119.026 783.038 135.99 800 156.914 800C177.838 800 194.803 783.038 194.803 762.112V396.573C194.803 396.573 199.498 395.298 619.702 293.318C640.037 288.382 652.519 267.897 647.586 247.562Z" fill="#F0C00C"/>
<path d="M71.2965 125.273L74.774 108.316C79.8582 83.5223 104.079 67.5436 128.873 72.6278C141.835 75.2854 152.377 83.1784 158.77 93.6421C167.363 75.2437 167.358 53.1368 156.797 33.9967C144.81 12.2754 122.337 0 99.165 0C88.4182 0 77.5271 2.63678 67.4525 8.19694C35.6566 25.7442 24.1037 65.744 41.651 97.54C48.6251 110.177 59.1565 119.586 71.2965 125.273Z" fill="#F0C00C"/>
</svg>
