<svg width="1810" height="434" viewBox="0 0 1810 434" fill="none" xmlns="http://www.w3.org/2000/svg">
<path d="M103.976 295.847C104.432 296.206 105.012 296.368 105.409 296.739C105.396 297.08 104.357 296.895 103.976 296.918V295.847Z" fill="#D7E4CE"/>
<path d="M181.062 172.661C177.599 173.207 173.89 178.506 177.029 181.524C179.65 184.044 182.985 183.171 185.617 181.151C190.719 177.236 185.802 171.913 181.062 172.661ZM188.888 184.244C181.425 191.468 169.464 189.472 165.869 179.463C163.601 173.147 167.529 164.65 173.76 162.147C188.425 156.257 200.75 172.762 188.888 184.244Z" fill="#DC1E25"/>
<path d="M239.872 181.386C242.068 183.269 244.873 182.734 247.073 181.151C256.137 174.629 240.6 166.886 237.887 175.535C237.197 177.731 238.182 179.936 239.872 181.386ZM235.312 164.207C240.033 160.326 245.923 161.553 250.776 164.588C261.453 171.262 258.928 189.721 244.22 188.295C233.171 187.224 226.138 171.75 235.312 164.207Z" fill="#DB1E25"/>
<path d="M234.898 332.855C236.47 334.706 238.761 336.8 240.652 338.356C243.088 340.363 250.013 344.408 250.911 347.038C251.713 349.39 249.977 352.613 248.084 354.024C244.476 356.71 241.726 354.098 237.432 354.45C234.592 354.685 231.494 357.092 229.252 356.933C226.372 356.73 222.607 354.592 218.845 354.449C215.382 354.318 212.942 356.061 209.77 354.233C209.065 353.826 208.443 352.98 207.569 352.503C204.18 350.648 198.86 351.684 195.447 353.196C192.833 354.356 191.892 356.169 188.479 355.877C187.637 355.805 181.768 353.56 180.901 353.088C178.053 351.539 178.563 349.451 179.925 346.964C182.581 342.117 190.498 338.381 194.734 334.617C202.865 327.391 204.789 320.005 218.147 320.844C228.44 321.49 229.254 326.205 234.898 332.855Z" fill="#DD1D25"/>
<path d="M181.062 172.661C185.802 171.913 190.719 177.236 185.617 181.151C182.985 183.171 179.65 184.044 177.029 181.524C173.89 178.506 177.599 173.207 181.062 172.661Z" fill="#18110F"/>
<path d="M239.872 181.386C238.182 179.936 237.197 177.731 237.887 175.535C240.6 166.886 256.137 174.629 247.073 181.151C244.873 182.734 242.068 183.269 239.872 181.386Z" fill="#18110F"/>
<path d="M73.9618 84.3231C82.1741 86.4466 90.743 89.2625 98.1397 93.91C106.343 99.0641 112.391 109.787 115.405 118.807C114.818 119.214 113.648 118.215 113.147 117.85C109.564 115.234 107.043 112.861 102.678 111.167C101.342 110.648 98.8403 109.752 98.6061 112.028C98.414 113.892 103.485 117.252 104.838 119.013C105.519 119.899 106.208 121.121 106.73 122.122C107.232 123.085 108.066 124.693 108.086 125.768C105.293 123.275 102.232 121.006 98.98 119.152C97.1966 118.136 89.9674 114.454 88.3648 114.44C87.5069 114.432 86.7406 114.91 86.8762 115.859C87.0611 117.158 92.4329 124.63 93.6226 125.94C96.9336 129.587 101.247 132.104 104.688 135.598L90.3988 131.846C90.4605 134.54 102.201 146.569 101.113 147.923C99.7803 146.995 94.2297 143.164 92.8778 144.144C91.4611 145.171 94.3705 148.882 94.9673 149.964C95.1409 150.278 95.7563 150.855 95.2231 151.137C89.7568 147.877 84.3767 142.578 77.5892 142.973C76.1951 145.83 78.6658 145.687 80.4092 146.657C89.8431 151.905 96.4857 162.142 102.546 170.786C93.187 169.052 85.7533 162.869 77.6745 158.315C75.1473 157.922 79.1641 162.545 79.6911 163.111C82.1084 165.704 85.5479 168.252 88.0966 170.773C89.5472 172.207 90.9146 173.83 92.1843 175.432C85.9701 174.01 80.6116 169.812 75.4113 166.298C74.684 166.069 74.0604 165.953 73.6227 166.707C76.1263 176.869 87.7679 182.37 96.4693 186.516L92.7052 186.883L80.7585 186.341C78.5333 187.923 80.025 190.483 81.3163 192.199L93.9616 207.059C93.5188 207.739 93.0113 207.559 92.36 207.592C90.5694 207.679 83.6525 205.761 82.9467 206.213C82.8234 206.291 82.5645 207.185 82.5769 207.418C82.7114 209.841 91.9429 215.943 93.6133 218.308C90.6064 217.814 87.4083 216.69 84.4127 216.256C82.2522 215.944 76.9184 215.035 80.4287 218.455C85.5376 223.433 91.7364 227.36 96.834 232.42C98.64 234.212 100.422 236.005 101.829 238.144C99.3427 238.267 97.1196 237.284 94.5379 237.638C93.8835 237.727 90.9115 238.615 91.6368 239.758C91.8299 240.063 96.2833 242.87 97.1494 243.538C103.062 248.101 108.455 253.516 115.406 256.548C115.496 257.169 114.579 256.913 114.198 256.863C112.819 256.686 102.509 253.314 104.509 257.607C105.588 259.923 112.4 262.482 114.789 263.433C115.266 263.622 115.935 263.491 115.767 264.221C115.679 264.596 108.935 264.438 108.069 264.418C106.743 264.387 105.287 263.596 103.977 264.228C102.368 265.005 103.813 266.358 104.715 267.058C107.945 269.565 112.257 271.192 115.407 273.874C112.931 274.809 101.233 273.449 106.31 278.326C108.69 280.612 112.726 281.915 115.402 283.877C113.83 285.652 110.703 285.683 108.47 285.456C107.657 285.372 106.126 284.286 105.565 285.11C104.291 286.983 109.343 290.164 110.762 290.663C108.61 292.746 102.641 289.856 101.11 291.372C99.7824 292.685 102.919 295.014 103.975 295.846L103.976 296.918C100.315 297.142 96.9429 297.582 93.2558 296.918C80.5243 294.626 72.1023 282.56 63.4328 274.041C54.2742 265.041 44.4346 256.509 33.5563 249.605C29.9299 247.303 26.1062 244.989 22.1541 243.318C21.6651 242.678 27.0719 241.453 27.5085 241.354C38.3477 238.869 51.2508 236.657 62.3346 236.162C65.3734 236.026 69.983 236.66 72.7095 236.174C73.18 236.091 73.7245 235.834 73.6022 235.29C68.0259 228.758 61.5189 221.723 54.0616 217.309C46.1276 212.613 37.3481 208.971 30.3655 202.774C20.0337 193.605 5.82695 175.996 1.72692 162.811C1.09512 160.781 1.17833 158.536 0 156.856V154.712C8.38086 156.892 15.6635 162.073 23.5883 165.246C28.5923 167.25 34.6597 168.869 39.9514 169.963C46.8272 171.385 53.852 172.464 60.734 170.422C60.8265 169.942 60.6662 169.524 60.471 169.097C59.6759 167.359 49.8763 161.571 47.5525 159.861C33.3396 149.396 17.1511 135.05 9.58283 118.868C7.0022 113.349 4.89106 106.493 4.64759 100.404L9.64036 103.447C17.9565 107.575 26.4267 112.292 35.913 112.903C39.5446 113.137 43.3744 112.673 47.0008 112.893C49.4315 113.04 52.1097 113.82 54.4931 113.975C59.5701 114.303 60.018 113.174 58.4133 108.625C56.0905 102.038 52.6511 95.2014 49.4941 88.9604C46.4635 82.9691 41.9475 77.8212 43.9507 70.3865C44.4942 70.2653 44.79 70.5118 45.2256 70.7194C48.4442 72.2562 52.9336 76.5299 56.3381 78.5434C63.0629 82.5201 66.9596 82.513 73.9618 84.3231Z" fill="#F0C00C"/>
<path d="M227.244 0C229.561 0.619473 231.977 0.725286 234.312 1.32832C243.388 3.67266 244.309 7.5662 250.656 12.4973C256.543 17.0709 262.82 12.2292 268.969 11.5327C284.405 9.78418 291.504 26.3466 283.627 38.697C281.198 42.5084 279.304 44.7243 274.765 45.3777C275.51 44.3298 274.885 44.8507 274.408 44.5003C271.303 42.2248 269.664 40.2863 265.826 38.773C260.784 36.7852 255.861 36.8181 250.823 35.5545C242.036 33.3519 241.641 26.8459 235.63 21.8059C229.034 16.2748 222.981 17.9257 215.508 16.2018C213.229 15.6769 211.708 14.7132 209.737 13.577C209.97 12.5302 209.219 11.1587 209.391 9.85609C209.843 6.44025 214.06 4.13804 216.639 2.43577L224.386 0H227.244Z" fill="#F0C00C"/>
<path d="M111.836 340.866C124.819 338.629 134.094 330.18 143.64 321.756C144.407 321.08 150.466 314.527 151.136 315.141C152.145 319.409 152.854 323.769 152.565 328.178C151.631 342.343 142.68 348.382 148.822 364.442C154.218 378.547 164.359 384.595 179.558 383.398C184.926 382.975 190.252 380.231 195.44 378.914C207.453 375.866 222.113 377.277 233.949 380.79C237.483 381.839 241.951 384.256 245.38 384.721C267.95 387.785 279.108 371.103 277.619 350.339C276.791 338.793 270.192 326.933 275.302 315.505C281.168 322.406 289.082 326.425 296.91 330.691C301.281 333.072 307.373 335.377 311.334 338.063C311.879 338.432 312.272 338.704 312.282 339.437C310.483 339.705 308.674 340.266 306.922 340.509C305.003 340.775 302.175 341.226 300.323 341.242C298.273 341.26 290.396 339.376 291.62 343.469C291.947 344.561 299.598 350.874 301.034 351.936C305.653 355.347 310.719 358.086 316.124 360.07L326.929 363.565C327.151 364.397 325.091 366.19 324.434 366.775C321.634 369.27 318.556 370.803 314.848 371.48C311.705 372.056 305.733 371.677 303.367 373.219C299.56 375.698 301.854 378.75 304.074 381.41C310.406 389.003 321.598 392.277 329.898 397.033C337.176 401.201 340.463 407.103 339.748 415.675C339.405 419.787 336.075 428.72 333.789 432.227C333.543 432.603 333.405 433.137 332.83 433.054C330.608 426.263 324.229 418.931 317.634 416.085C315.101 414.992 312.018 414.499 309.533 413.468C306.852 412.354 304.808 410.265 302.284 408.926C289.998 402.41 283.457 413.641 272.171 411.884C270.311 411.594 268.146 410.157 266.267 409.569C261.073 407.945 253.926 407.039 248.679 408.571C241.414 410.692 238.228 413.861 230.008 410.813C220.775 407.388 214.924 405.794 204.797 407.922C200.873 408.747 196.622 411.587 193.124 411.971C185.208 412.842 178.363 407.852 169.935 408.791C164.784 409.365 159.2 413.681 154.175 413.783C149.298 413.883 143.929 408.482 138.11 408.026C129.887 407.382 128.682 410.855 122.664 414.401C116.962 417.761 112.416 418.197 107.912 423.946C105.939 426.465 104.564 429.92 102.704 432.314C101.634 433.689 101.137 432.624 100.254 431.591C95.7561 426.327 93.6214 416.873 94.8439 410.163C97.8354 393.742 115.819 393.292 124.848 381.569C127.393 378.263 127.684 376.413 123.19 375.069C116.925 373.193 108.305 375.193 104.695 367.867C104.808 367.344 109.76 365.777 110.752 365.33C115.462 363.208 119.913 360.386 123.454 356.592C124.34 355.642 130.414 348.388 130.42 347.827C130.448 345.226 124.715 347.006 123.082 346.958C118.326 346.818 113.516 344.472 109.865 341.583C109.252 340.75 111.611 340.905 111.836 340.866Z" fill="#F0C00C"/>
<path d="M331.576 323.001C336.499 326.533 339.352 323.595 343.01 320.499C343.707 319.911 345.86 317.519 346.583 317.284C347.168 317.094 349.799 317.268 350.537 317.438C352.327 317.85 354.584 320.113 355.004 321.904C356.618 328.789 348.666 331.762 343.367 333.005C340.286 333.396 337.521 333.494 334.434 333.005C330.667 332.409 327.468 330.95 324.43 328.718C323.705 328.185 321.761 326.71 321.215 326.216C312.018 317.932 306.788 304.823 300.91 294.176C288.62 271.917 280.842 251.711 254.315 243.943C250.291 242.764 242.593 240.146 240.542 245.361C239.443 248.153 241.974 250.424 241.441 254.129C241.077 256.674 238.34 261.79 235.362 261.116C231.639 260.274 230.296 247.482 224.02 254.569C220.847 258.153 219.546 262.75 213.752 263.595C205.447 264.808 205.185 260.054 200.953 255.144C197.942 251.651 192.605 251.739 191.067 256.286C190.252 258.692 193.452 260.741 190.444 262.083C187.873 263.23 183.948 262.114 182.034 260.128C180.551 258.592 178.978 253.835 178.983 251.719C178.987 249.748 180.176 248.531 180.417 247.053C181.122 242.709 179.141 240.563 174.71 241.704C168.336 243.345 155.071 257.085 150.793 262.449C137.243 279.435 124.609 319.067 103.261 326.216C95.1195 328.943 68.9291 326.615 67.2607 315.59C66.6474 311.541 69.5342 306.972 73.7821 306.565C79.6224 306.005 82.7177 311.092 87.2266 313.488C93.5939 316.87 99.7188 315.947 105.376 311.719C106.209 311.095 106.383 310.221 106.477 310.138C106.51 310.108 106.958 310.524 107.37 310.167C124.7 295.085 132.184 272.393 147.914 255.997C157.091 246.432 166.584 237.551 179.537 233.668C184.531 232.172 193.391 231.285 197.048 227.597C204.862 219.721 204.724 200.189 202.85 190.003C202.435 187.749 200.981 184.696 201.176 182.445C201.402 179.834 203.925 176.902 204.634 174.441C205.424 171.696 204.645 169.137 205.633 166.508C206.767 163.487 209.905 160.168 212.311 164.108C213.421 165.927 213.228 167.994 213.959 169.963C216.659 177.253 220.639 177.989 220.113 187.776C219.779 193.997 218.231 200.9 217.939 207.399C217.503 217.137 218.765 225.935 227.63 231.324C234.065 235.237 236.219 233.961 243.141 234.394C266.298 235.841 284.734 247.58 295.91 267.734C298.75 272.856 300.821 278.467 303.646 283.58C309.234 293.698 322.645 316.594 331.576 323.001Z" fill="#EFBF0C"/>
<path d="M266.547 53.2379C271.731 59.4007 269.139 65.0345 272.788 70.7567C273.772 72.3008 274.65 73.4257 276.687 73.2284C279.986 72.91 284.3 66.5406 286.34 63.9199C292.369 56.175 296.799 46.4894 306.772 43.6191C319.402 39.9844 329.399 40.7939 339.965 48.957C346.348 53.8881 349.017 63.0559 343.367 69.6739C338.531 75.3375 326.656 73.1288 319.968 73.6085C310.294 74.302 301.3 77.4908 294.948 85.0333C285.171 96.6441 288.974 118 275.231 126.415C273.159 127.685 268.451 129.921 266.107 129.631C263.229 129.275 250.186 123.071 247.247 121.31C245.495 120.261 242.823 118.499 243.119 116.111C243.446 113.483 246.476 108.708 247.52 105.85C252.454 92.3335 252.322 82.6582 244.183 70.7783C241.447 66.7861 234.067 59.8466 234.035 55.2052C234.009 51.2151 238.795 44.5837 242.365 42.8116C246.635 40.6933 252.815 43.1455 256.782 45.3162C259.901 47.0226 264.398 50.6819 266.547 53.2379Z" fill="#F0C00B"/>
<path d="M130.415 54.6672C130.479 54.7288 130.544 55.3658 130.926 55.7489C133.712 58.5422 138.243 64.5633 140.953 66.4608C145.561 69.6866 149.016 65.3636 151.2 61.6961C154.767 55.7068 156.393 46.0942 164.882 45.3648C169.468 44.9703 181.125 45.0515 182.138 51.0017C183.404 58.4374 177.348 60.4243 173.466 65.0246C162.823 77.6329 158.247 92.8927 163.905 108.895C164.8 111.426 167.384 115.401 167.223 117.722C166.987 121.148 163.627 120.913 161.15 122.024C151.743 126.248 145.423 136.151 134.225 128.928C114.397 116.139 131.822 82.3421 104.693 74.1359C97.194 71.8676 85.7856 73.727 80.0357 70.3882C77.8557 69.1226 73.7557 64.89 72.601 62.6381C68.0613 53.794 79.1235 43.1961 87.1047 40.8333C100.331 36.9182 120.777 45.3741 130.415 54.6672Z" fill="#F0C00B"/>
<path d="M169.361 22.1524C166.196 17.8798 165.28 11.0399 169.751 7.35595C174.406 3.52097 183.751 1.78891 189.365 4.11373C196.599 7.10837 199.902 12.4042 202.59 19.2944C203.637 21.9767 206.481 29.1238 206.535 31.6397C206.633 36.2328 196.274 39.9188 192.565 39.1432C188.678 38.3306 187.614 32.8982 184.251 31.3808C181.623 30.1943 177.781 30.8466 175.663 29.2491C174.94 28.7046 170.059 23.0934 169.361 22.1524Z" fill="#F0C00C"/>
<path d="M162.215 28.2266C162.866 29.519 162.378 32.2065 161.812 33.5379C159.783 33.7125 158.154 32.9841 156.047 33.316C152.009 33.9519 148.507 37.5208 146.346 40.764C144.215 43.9641 142.986 49.7551 138.633 44.3052C138.025 43.5429 137.349 42.0276 136.639 41.1195C135.563 39.7429 133.477 38.4967 133.071 36.8273C132.51 34.5107 133.293 31.4452 135.149 29.9227C136.692 28.6581 147.531 25.0163 149.531 25.0163C150.333 25.0152 158.896 26.6055 159.805 26.8849C160.151 26.9908 162.154 28.1033 162.215 28.2266Z" fill="#EFBF0D"/>
<path d="M233.801 223.902C228.781 218.881 228.337 206.638 230.36 200.168C232.486 193.364 235.912 195.97 241.343 196.173C245.179 196.318 249.082 196.356 252.71 195.006C256.013 193.777 258.211 191.16 261.299 189.661C263.647 188.523 271.047 186.166 273.516 186.127C280.172 186.023 285.052 198.455 285.75 203.932C286.72 211.552 281.089 218.954 276.204 224.217C272.261 228.463 270.411 230.787 264.24 231.189C257.178 231.648 238.884 228.987 233.801 223.902Z" fill="#F0BF0B"/>
<path d="M141.26 217.828C137.303 213.931 133.007 201.874 133.67 196.378C134.18 192.158 140.266 186.934 143.667 184.578C149.596 180.472 152.366 181.281 157.738 185.45C165.951 191.82 169.091 198.993 181.169 196.712C182.663 196.431 186.988 194.611 187.742 194.718C188.824 194.873 191.317 197.996 191.631 199.079C192.567 202.321 190.571 213.589 189.288 216.979C188.557 218.916 186.692 221.828 185.265 223.318C180.922 227.854 177.553 225.869 172.205 227.051C169.506 227.648 165.744 230.026 163.201 229.667C157.306 228.835 153.347 221.488 149.802 220.898C146.05 220.273 144.377 220.898 141.26 217.828Z" fill="#F0BF0B"/>
<path d="M261.692 162.783C257.28 158.077 250.773 153.238 244.17 152.614C242.481 152.454 235.749 153.022 235.078 151.973C234.311 150.775 235.097 149.047 235.548 147.83C236.752 144.584 242.318 133.923 244.991 132.261C247.881 130.464 252.415 133.038 255.355 134.282C266.154 138.851 278.355 146.974 290.501 140.97C293.499 139.487 296.945 134.767 299.715 139.231C301.378 141.91 299.884 143.737 299.515 146.411C298.643 152.709 299.311 154.72 299.77 160.613C300.154 165.532 298.4 174.453 293.829 177.17C289.664 179.646 275.488 179.517 271.11 177.483C267.673 175.885 267.031 170.962 265.412 167.817C264.316 165.689 263.292 164.489 261.692 162.783Z" fill="#F0BF0B"/>
<path d="M208.577 92.9776C212.694 92.3663 217.965 99.3552 220.031 102.434C221.719 104.95 228.679 117.579 229 119.906C229.191 121.291 228.824 122.414 229.305 123.888C229.819 125.46 231.457 126.19 232.195 127.43C234.38 131.107 232.273 133.038 231.341 136.477C230.289 140.364 230.588 143.578 227.055 146.484C221.805 150.804 221.04 146.524 217.783 143.628C209.448 136.217 207.116 149.05 199.549 148.997C195.794 148.972 191.734 142.697 189.794 139.818C185.115 132.879 182.763 128.689 185.697 120.131C187.534 114.769 196.183 109.47 199.88 104.302C202.548 100.571 203.21 93.7737 208.577 92.9776Z" fill="#F0BF0B"/>
<path d="M164.266 133.716C170.685 132.611 177.289 137.448 180.585 142.594C182.07 144.914 182.877 146.365 182.2 149.153C180.804 154.911 177.929 153.238 173.218 154.102C166.001 155.426 159.892 158.08 156.542 164.938C155.472 167.129 155.307 170.36 152.862 171.262C150.249 172.226 147.754 171.983 145.088 173.85C142.42 175.718 140.412 179.766 137.452 181.578C133.545 183.969 128.795 182.223 126.329 178.628C123.934 175.134 125.235 170.762 124.676 167.061C124.392 165.174 122.457 163.069 122.262 161.225C121.973 158.497 123.526 154.694 123.229 151.714C122.795 147.362 118.397 145.46 120.398 140.584C120.944 139.253 121.793 137.886 123.416 138.286C127.757 139.671 132.011 141.798 136.488 142.743C142.052 143.918 150.468 142.352 155.398 139.498C157.968 138.011 161.593 134.177 164.266 133.716Z" fill="#F0BF0B"/>
<path d="M205.712 48.6789C208.615 48.2135 214.101 49.5788 216.502 51.2954C220.552 54.1925 219.762 60.5783 221.459 64.5602C222.34 66.6282 224.787 68.7444 226.112 70.6275C229.611 75.6028 236 85.3387 236.528 91.2961C237.076 97.4785 234.215 101.262 228.503 96.82C222.686 92.2967 223.425 84.7274 214.164 83.6467C202.07 82.2362 200.069 89.4069 193.126 96.8334C190.484 99.6605 183.479 108.042 180.725 101.365C176.428 90.954 185.098 80.6685 189.877 72.5034C195.248 63.3284 189.727 55.2866 201.99 49.9589C202.91 49.5593 204.789 48.8268 205.712 48.6789Z" fill="#F0BF0B"/>
<path d="M116.029 192.316C119.156 191.784 123.655 193.796 124.259 197.135C124.932 200.854 123.534 202.429 126.494 205.975C127.747 207.477 130.111 208.478 130.685 210.36C131.647 213.519 131.915 222.245 130.793 225.3C129.308 229.343 122.902 230.195 119.152 229.753C116.18 229.403 116.014 226.733 114.828 224.787C114.093 223.581 111.771 220.502 111.561 219.48C110.993 216.705 113.317 212.222 112.908 208.484C112.559 205.29 109.621 203.645 110.076 199.587C110.409 196.614 112.925 192.844 116.029 192.316Z" fill="#EFBE0C"/>
<path d="M291.468 230.164C293.347 229.773 296.296 233.504 297.628 234.573C301.857 237.97 306.172 239.855 311.74 239.387C313.262 239.259 319.071 237.221 319.424 237.402C322.316 238.876 318.095 246.764 316.718 248.652C312.734 254.114 301.905 256.718 295.66 254.406C290.467 252.483 285.997 246.598 285.832 240.981C285.759 238.484 288.7 230.741 291.468 230.164Z" fill="#EFBF0C"/>
<path d="M142.121 233.412C144.246 233.127 148.169 233.633 148.216 236.347C148.259 238.835 145.604 245.748 143.984 247.78C141.795 250.526 136.65 253.025 133.13 252.585C131.192 252.341 129.589 250.338 128.066 250.121C126.521 249.9 124.005 250.643 122.006 250.481C115.11 249.923 107.011 240.453 113.803 235.106C116.908 232.661 118.909 235.853 122.18 236.374C125.195 236.853 132.6 235.904 135.855 235.364C138.19 234.976 140.143 233.677 142.121 233.412Z" fill="#EFBF0C"/>
<path d="M310.4 211.967C311.854 211.721 313.913 211.732 314.952 212.961C315.225 213.284 317.805 219.446 317.921 220C318.566 223.091 314.846 228.754 312.167 230.167C309.095 231.789 304.202 231.608 301.584 229.188C301.115 228.755 297.615 222.559 297.444 221.895C295.781 215.435 301.523 215.561 305.485 214.194C307.074 213.645 308.719 212.251 310.4 211.967Z" fill="#EFBF0C"/>
<path d="M213.755 27.2436C214.293 26.6292 215.84 26.8162 216.603 26.8933C218.546 27.0905 225.921 28.7332 227.082 29.9968C228.15 31.1597 228.696 35.6316 229.206 37.5198C229.933 40.2124 232.102 41.9486 229.045 44.1399C224.567 47.3492 221.894 41.6394 218.783 40.083C215.995 38.6869 213.371 40.1077 213.28 35.5494C213.259 34.5345 213.674 33.6592 213.682 32.7079C213.689 31.6045 213.261 27.8066 213.755 27.2436Z" fill="#EEBE0C"/>
<path d="M306.48 189.82C310.03 189.303 317.621 190.13 316.91 195.236C316.549 197.829 310.063 202.808 307.572 203.418C304.357 204.205 301.623 202.523 299.596 200.091C295.88 195.634 302.294 190.429 306.48 189.82Z" fill="#EEBE0C"/>
<path d="M349.441 81.4648C355.037 80.1159 362.317 79.0907 367.127 75.7478C368.065 75.0965 371.937 70.3585 372.664 71.1012C373.432 75.3369 371.22 80.1313 369.021 83.7167C366.606 87.6564 362.751 91.3764 359.059 94.1203C350.851 100.22 346.284 99.3771 341.937 110.049C341.564 110.966 340.545 111.92 340.868 113.263C342.818 113.849 342.727 112.413 343.01 112.193C344.514 111.02 356.084 106.848 358.539 106.105C363.553 104.59 371.631 102.892 376.787 103.248C387.257 103.97 396.297 105.48 406.91 103.025C409.906 102.332 412.621 100.926 415.539 100.046C415.528 105.661 410.19 111.461 406.435 115.414C399.574 122.636 390.866 126.635 383.554 133.264C376.826 139.363 374.17 144.51 369.092 151.496C369.061 151.54 368.428 151.362 368.361 151.679C367.973 153.512 369.823 152.709 370.521 152.568C374.171 151.832 377.518 150.303 381.09 149.381C394.8 145.839 406.001 151.562 420.023 150.796C423.894 150.585 427.026 149.868 430.547 148.282C431.673 149.543 425.782 160.517 424.756 162.319C419.021 172.383 411.044 179.223 400.172 183.469C397.698 184.435 395.009 184.94 392.581 185.882C371.829 193.94 357.839 208.288 348.012 227.958C347.811 228.359 346.546 228.99 346.941 230.101C347.424 230.617 349.274 228.747 349.441 228.673C365.497 221.565 375.52 221.326 392.794 224.087C397.437 224.83 404.003 225.939 408.32 227.508C408.595 227.608 409.433 227.47 409.107 228.133C408.843 228.67 400.277 233.348 398.846 234.309C389.325 240.705 376.831 250.006 370.375 259.434C361.08 273.01 357.598 288.114 340.151 294.06C336.282 295.378 332.09 296.435 328.003 296.557C330.055 294.577 333.519 293.905 334.791 291.205C332.743 291.26 330.647 291.134 328.639 290.735C327.978 290.603 327.025 290.687 327.29 289.777C329.173 289.642 337.21 283.859 336.937 282.455C336.129 281.334 334.897 282.23 333.894 282.266C332.653 282.311 331.186 282.357 329.963 282.268C329.431 282.23 328.928 282.546 329.078 281.737C331.327 279.632 340.061 273.364 339.812 270.302C339.619 267.937 335.811 271.461 334.681 271.976C333.213 272.645 331.39 273.098 329.789 273.333C332.112 271.038 334.313 268.614 336.014 265.805C336.648 264.757 339.932 259.2 338.167 258.691C337.445 258.483 330.459 263.822 328.367 263.156C330.819 260.298 332.713 256.654 334.084 253.156C334.728 251.518 337.055 245.158 336.249 243.924C334.536 241.301 328.696 246.443 327.465 247.966C327.7 241.22 332.596 235.852 335.692 230.111C336.621 228.388 337.632 226.408 338.427 224.627C339.267 222.742 342.509 215.281 341.527 213.721L339.693 213.358L330.15 221.885C331.11 217.11 333.375 212.69 336.074 208.697C336.793 207.634 341.127 202.48 341.172 201.992C341.239 201.277 340.076 200.554 339.399 200.613C337.637 200.769 334.495 203.507 332.824 204.374C332.555 204.431 332.595 204.029 332.652 203.848C335.307 195.53 343.592 187.421 348.308 180.197C352.123 174.352 344.635 177.264 341.967 178.859C337.409 181.583 334.798 186.358 330.865 189.728C331.134 187.784 331.782 185.842 332.475 184.016C334.758 177.999 338.723 172.105 341.127 166.228C341.806 164.568 342.531 163.003 340.867 161.679C340.477 161.464 340.056 161.456 339.625 161.473C338.084 161.535 332.18 166.302 330.692 167.584C329.516 168.598 328.586 169.912 327.292 170.79C328.345 165.817 330.55 160.757 332.944 156.259C333.473 155.262 337.337 150.469 334.987 150.42C334.204 150.405 329.169 154.445 327.971 155.216C326.839 155.944 325.635 156.61 324.434 157.213C327.055 147.551 331.664 138.482 334.528 128.902C335.111 126.953 336.185 124.248 335.54 122.343C334.28 120.769 328.345 123.872 326.821 124.768C323.003 127.014 320.096 130.122 317.46 133.629C317.027 131.138 322.116 118.978 320.855 117.554C319.453 117.879 318.563 119.505 317.454 120.403C314.471 122.821 310.365 124.862 309.419 128.983C308.898 129.048 308.779 128.048 308.742 127.703C308.239 123.052 310.369 119.845 310.493 115.41C309.951 114.843 306.335 117.731 305.682 118.278C303.753 119.893 302.141 121.923 300.49 123.809L299.775 123.44C301.164 117.737 301.403 111.583 304 106.234C305.031 104.114 307.447 100.552 308.916 98.6446C319.467 84.9413 334.068 85.1714 349.441 81.4648Z" fill="#F0C00C"/>
<path d="M291.914 306.563C288.58 305.506 283.756 301.846 280.226 302.912C279.153 303.236 278.097 304.279 277.012 304.705C270.557 307.238 267.455 301.724 261.379 301.192C250.227 300.22 244.758 308.293 231.705 304.426C227.02 303.04 222.37 299.033 217.418 299.032C211.645 299.032 206.815 304.459 201.066 303.62C195.15 302.756 189.939 298.111 183.407 300.424C175.258 303.311 171.848 307.488 161.723 306.522C157.178 306.088 152.834 303.183 148.291 304.609C146.35 305.219 144.815 306.671 142.925 307.279C141.488 301.882 144.738 296.592 148.097 292.627C151.3 288.845 156.292 286 159.147 282.237C162.03 278.438 163.598 273.04 165.438 268.694L166.147 268.871C165.469 270.564 167.848 277.233 169.752 276.745L174.002 272.622C173.855 274.975 173.971 277.84 175.793 279.588C178.483 282.17 179.612 278.4 181.144 276.723C181.6 276.221 184.639 272.976 185.082 273.34C183.764 275.186 185.684 280.19 187.782 280.492C190.524 280.888 192.555 275.877 194.369 274.408C194.384 275.796 194.527 282.971 196.645 282.598C199.735 280.611 200.17 276.756 202.585 274.409C203.094 276.204 203.511 278.336 204.309 280.014C207.189 286.069 208.68 278.032 211.519 276.552C211.116 279.462 213.165 283.753 215.921 284.856C218.861 286.033 221.053 280.227 221.346 277.983C223.665 279.387 224.356 282.387 225.99 284.059C228.918 287.056 228.607 283.408 229.374 281.362C230.056 279.541 230.906 278.152 232.427 276.911C232.831 278.848 232.32 281.048 233.217 282.899C233.38 283.236 233.308 283.448 233.855 283.363L234.782 283.116C235.763 280.796 236.382 278.486 238.503 276.912L240.158 281.323C240.897 282.654 241.747 281.308 242.015 280.425C242.631 278.393 242.255 275.634 244.217 274.053C244.983 275.799 246.112 277.78 248.093 278.282C250.206 277.001 249.803 274.174 251.003 272.266C252.262 272.935 255.211 277.605 256.337 277.257C256.926 277.074 257.547 274.228 257.906 273.45C258.673 271.793 260.224 270.488 259.76 268.336C260.136 267.879 262.348 270.133 262.608 270.653C263.101 271.641 263.434 275.398 264.578 275.122C266.043 274.769 266.428 267.235 267.083 267.269C269.664 269.736 269.255 273.416 270.292 276.559C272.196 282.337 279.873 287.406 283.88 291.912C287.481 295.959 290.226 301.442 291.914 306.563Z" fill="#EFBF0B"/>
<path d="M257.976 323.001C258.514 323.083 258.639 323.678 258.873 324.065C262.382 329.906 267.687 341.351 268.944 347.938C271.639 362.054 271.211 373.872 254.831 376.849C244.454 378.735 241.219 375.415 232.042 373.05C221.147 370.241 207.962 369.524 196.866 371.407C183.996 373.592 168.037 381.942 159.07 368.13C147.69 350.603 158.872 342.336 165.917 326.881C166.838 324.861 167.278 322.402 168.643 320.857C169.324 324.432 169.609 328.112 169.377 331.77C168.877 339.639 164.818 349.261 170.608 356.235C174.484 360.902 176.673 358.436 181.078 360.055C183.043 360.777 184.563 362.785 186.682 363.025C191.951 363.623 195.744 357.44 202.122 359.736C203.86 360.361 207.017 362.726 208.502 363.003C214.696 364.156 216.658 359.314 223.555 362.599C225.2 363.384 227.009 365.31 228.843 365.529C232.1 365.916 234.449 363.763 237.465 363.415C245.11 362.531 248.987 366.38 254.905 358.701C257.672 355.111 259.111 348.028 259.072 343.54C259.05 341.063 258.11 337.954 257.957 335.343C257.721 331.316 258.16 327.052 257.976 323.001Z" fill="#EFBE0C"/>
<path d="M509.689 319.67L531.295 204.958H627.265L612.694 282.227H653.728C681.977 280.638 698.112 269.292 702.132 248.187L710.339 204.958H767.117C767.005 205.412 766.949 206.092 766.949 207L759.412 246.826C756.062 260.442 751.094 272.582 744.506 283.248C729.544 307.529 704.03 319.67 667.964 319.67H509.689ZM637.649 150.155L632.29 178.748H536.32L548.881 112.372H705.984C738.811 112.372 758.798 128.143 765.944 159.686C767.284 165.813 768.122 172.167 768.456 178.748H714.358C712.683 159.686 701.741 150.155 681.531 150.155H637.649Z" fill="#DD1D25"/>
<path d="M1025.5 204.958C1017.68 223.793 1005.96 233.21 990.324 233.21H986.137L1005.4 321.031H909.428L888.66 233.21H882.295L866.049 319.67H770.079L791.685 204.958H1025.5ZM966.374 112.031C999.09 112.485 1018.85 121.789 1025.66 139.943C1030.47 149.02 1032.75 161.955 1032.53 178.748H975.753L976.925 172.621C975.027 157.644 963.359 150.155 941.921 150.155H898.039L892.68 178.748H796.709L809.271 112.031H966.374Z" fill="#DD1D25"/>
<path d="M1180.71 261.122L1123.6 261.463L1086.58 319.67H1029.97L1102.83 204.958H1159.94L1146.21 226.402H1187.24L1191.26 204.958H1287.23L1265.63 319.67H1169.66L1180.71 261.122ZM1119.58 178.748L1146.21 136.88C1156.82 120.314 1169.04 112.031 1182.89 112.031H1304.82L1292.26 178.748H1196.29L1201.82 149.474H1195.95L1177.03 178.748H1119.58Z" fill="#DD1D25"/>
<path d="M1533.22 282.227L1526.19 319.67H1367.41C1332.01 319.67 1311.36 307.529 1305.44 283.248C1302.98 272.809 1302.59 260.668 1304.27 246.826L1311.8 207C1311.91 206.546 1311.97 206.206 1311.97 205.979C1311.97 205.752 1312.08 205.412 1312.31 204.958H1408.11L1400.24 246.826C1398.34 257.718 1400.12 266.342 1405.6 272.696C1411.18 279.05 1420.84 282.227 1434.57 282.227H1533.22ZM1462.37 150.155C1439.26 150.155 1423.13 159.686 1413.97 178.748H1321.01C1322.35 175.344 1323.81 172.167 1325.37 169.217C1326.93 166.04 1328.66 162.863 1330.56 159.686C1350.1 127.916 1376.23 112.031 1408.95 112.031H1565.38L1558.18 150.155H1462.37Z" fill="#DD1D25"/>
<path d="M1627.8 319.67C1592.4 319.67 1571.75 307.529 1565.83 283.248C1563.37 272.809 1562.98 260.668 1564.66 246.826L1572.19 207C1572.3 206.546 1572.36 206.206 1572.36 205.979C1572.36 205.752 1572.47 205.412 1572.69 204.958H1668.5L1660.63 246.826C1656.72 268.611 1668.16 280.411 1694.96 282.227C1723.21 280.638 1739.34 269.292 1743.36 248.187L1751.57 204.958H1808.35C1808.24 205.412 1808.18 206.092 1808.18 207L1800.64 246.826C1797.29 260.442 1792.33 272.582 1785.74 283.248C1770.78 307.529 1745.26 319.67 1709.2 319.67H1627.8ZM1722.76 150.155C1699.65 150.155 1683.52 159.686 1674.36 178.748H1581.4C1582.74 175.344 1584.2 172.167 1585.76 169.217C1587.32 166.04 1589.05 162.863 1590.95 159.686C1610.16 128.143 1636.17 112.372 1669 112.372H1747.22C1780.04 112.372 1800.03 128.143 1807.18 159.686C1808.52 165.813 1809.35 172.167 1809.69 178.748H1755.59C1753.92 159.686 1742.97 150.155 1722.76 150.155Z" fill="#DD1D25"/>
</svg>
