<svg width="800" height="800" viewBox="0 0 800 800" fill="none" xmlns="http://www.w3.org/2000/svg">
<g clip-path="url(#clip0_190_7)">
<path d="M535 33.3333H265L33.3335 208.333V591.667L265 766.667H535L766.667 591.667V208.333L535 33.3333ZM300 99.9999H500V300H300V99.9999ZM100 375L133.333 400L100 425V375ZM233.333 483.333V660L100 558.333V508.333L188.333 441.667L233.333 476.667V483.333ZM188.333 358.333L100 291.667V241.667L233.333 140V323.333L188.333 358.333ZM500 700H300V500H500V700ZM513.333 433.333H286.667L243.333 400L286.667 366.667H513.333L556.667 400L513.333 433.333ZM700 558.333L566.667 660V476.667L611.667 441.667L700 508.333V558.333ZM700 425L666.667 400L700 375V425ZM700 250V291.667L611.667 358.333L566.667 323.333V140L700 241.667V250Z" fill="#F0C00C"/>
</g>
<defs>
<clipPath id="clip0_190_7">
<rect width="800" height="800" fill="white"/>
</clipPath>
</defs>
</svg>
