<svg width="100" height="117" viewBox="0 0 100 117" fill="none" xmlns="http://www.w3.org/2000/svg">
<path d="M72.2222 40.7407H64.8148V66.6666H55.5556V109.259H44.4445V66.6666H35.1852V40.7407H27.7778V74.0741H37.037V116.667H62.963V74.0741H72.2222V40.7407Z" fill="#F0C00C"/>
<path d="M37.037 12.963C37.037 20.0926 42.8704 25.9259 50 25.9259C57.1296 25.9259 62.963 20.0926 62.963 12.963C62.963 5.83333 57.1296 0 50 0C42.8704 0 37.037 5.83333 37.037 12.963ZM55.5556 12.963C55.5556 16.0185 53.0556 18.5185 50 18.5185C46.9444 18.5185 44.4444 16.0185 44.4444 12.963C44.4444 9.90741 46.9444 7.40741 50 7.40741C53.0556 7.40741 55.5556 9.90741 55.5556 12.963Z" fill="#F0C00C"/>
<path d="M5.55556 22.2222C5.55556 29.3519 11.3889 35.1852 18.5185 35.1852C25.6481 35.1852 31.4815 29.3519 31.4815 22.2222C31.4815 15.0926 25.6481 9.25928 18.5185 9.25928C11.3889 9.25928 5.55556 15.0926 5.55556 22.2222ZM24.0741 22.2222C24.0741 25.2778 21.5741 27.7778 18.5185 27.7778C15.463 27.7778 12.963 25.2778 12.963 22.2222C12.963 19.1667 15.463 16.6667 18.5185 16.6667C21.5741 16.6667 24.0741 19.1667 24.0741 22.2222Z" fill="#F0C00C"/>
<path d="M92.5926 75.9259H83.3333V109.259H68.5185V116.667H90.7407V83.3333H100V46.2963H92.5926V75.9259Z" fill="#F0C00C"/>
<path d="M68.5185 22.2222C68.5185 29.3519 74.3519 35.1852 81.4815 35.1852C88.6111 35.1852 94.4445 29.3519 94.4445 22.2222C94.4445 15.0926 88.6111 9.25928 81.4815 9.25928C74.3519 9.25928 68.5185 15.0926 68.5185 22.2222ZM81.4815 16.6667C84.537 16.6667 87.037 19.1667 87.037 22.2222C87.037 25.2778 84.537 27.7778 81.4815 27.7778C78.4259 27.7778 75.9259 25.2778 75.9259 22.2222C75.9259 19.1667 78.4259 16.6667 81.4815 16.6667Z" fill="#F0C00C"/>
<path d="M16.6667 75.9259H7.40741V46.2963H0V83.3333H9.25926V116.667H31.4815V109.259H16.6667V75.9259Z" fill="#F0C00C"/>
</svg>
