<svg width="89" height="115" viewBox="0 0 89 115" fill="none" xmlns="http://www.w3.org/2000/svg">
<path d="M82.5694 40.625C82.5694 38.7287 81.8161 36.9101 80.4752 35.5692C79.1344 34.2283 77.3157 33.475 75.4194 33.475C74.472 33.4817 73.5328 33.3 72.6563 32.9405C71.7797 32.581 70.9833 32.0509 70.3134 31.381C69.6435 30.7111 69.1134 29.9147 68.754 29.0382C68.3945 28.1616 68.2128 27.2224 68.2194 26.275C68.2194 20.5729 65.9543 15.1043 61.9222 11.0722C57.8902 7.0402 52.4216 4.77502 46.7194 4.77502H41.7194C36.0173 4.77502 30.5487 7.0402 26.5166 11.0722C22.4846 15.1043 20.2194 20.5729 20.2194 26.275C20.233 28.1543 19.5061 29.9633 18.1961 31.3107C16.8861 32.6581 15.0983 33.4356 13.2194 33.475C11.3231 33.475 9.5045 34.2283 8.16361 35.5692C6.82273 36.9101 6.06942 38.7287 6.06942 40.625C6.07447 42.7129 6.73292 44.7469 7.95242 46.4416C9.17192 48.1364 10.8913 49.4069 12.8694 50.075L14.7194 50.725C16.3809 51.2731 17.8267 52.3321 18.8503 53.7508C19.874 55.1696 20.4232 56.8755 20.4194 58.625C20.4194 59.7192 20.2031 60.8026 19.7829 61.8129C19.3626 62.8232 18.7468 63.7404 17.9708 64.5118C17.1947 65.2831 16.2738 65.8935 15.2611 66.3076C14.2483 66.7218 13.1636 66.9316 12.0694 66.925C10.8803 66.934 9.71101 67.2314 8.66207 67.7917C7.61312 68.352 6.71579 69.1584 6.04709 70.1418C5.37838 71.1252 4.95828 72.2562 4.82283 73.4376C4.68738 74.6191 4.84063 75.8158 5.26942 76.925C6.90266 81.0416 9.73505 84.5726 13.3993 87.06C17.0636 89.5474 21.3907 90.8765 25.8194 90.875H62.8194C67.2424 90.8805 71.5653 89.5588 75.2289 87.0807C78.8925 84.6026 81.7283 81.0823 83.3694 76.975C83.7982 75.8658 83.9515 74.6691 83.816 73.4876C83.6806 72.3062 83.2605 71.1752 82.5918 70.1918C81.9231 69.2084 81.0257 68.402 79.9768 67.8417C78.9278 67.2814 77.7586 66.984 76.5694 66.975C75.4753 66.9816 74.3906 66.7718 73.3778 66.3576C72.365 65.9435 71.4441 65.3331 70.6681 64.5618C69.8921 63.7904 69.2762 62.8732 68.856 61.8629C68.4357 60.8526 68.2194 59.7692 68.2194 58.675C68.2157 56.9255 68.7649 55.2196 69.7885 53.8008C70.8122 52.3821 72.258 51.3231 73.9194 50.775L75.7694 50.125C77.7556 49.4542 79.4808 48.176 80.701 46.4713C81.9212 44.7666 82.5748 42.7215 82.5694 40.625Z" stroke="#F0C00C" stroke-width="9.55" stroke-miterlimit="10"/>
<path d="M44.3195 28.6749V114.775" stroke="#F0C00C" stroke-width="9.55" stroke-miterlimit="10"/>
<path d="M29.9694 38.2749L44.3194 47.8249" stroke="#F0C00C" stroke-width="9.55" stroke-miterlimit="10"/>
<path d="M29.9694 66.9249L44.3194 76.5249" stroke="#F0C00C" stroke-width="9.55" stroke-miterlimit="10"/>
<path d="M44.3195 62.1749L58.6695 47.825" stroke="#F0C00C" stroke-width="9.55" stroke-miterlimit="10"/>
</svg>
