<svg width="200" height="200" viewBox="0 0 200 200" fill="none" xmlns="http://www.w3.org/2000/svg">
<path d="M0 200H200V-4.8424e-06H0V200Z" fill="#13110E"/>
<path d="M72.9116 118.93C73.0285 119.023 73.1772 119.064 73.2788 119.159C73.2754 119.247 73.0093 119.199 72.9116 119.205V118.93Z" fill="#D7E4CE"/>
<path d="M92.6613 87.37C91.774 87.5101 90.8239 88.8676 91.6279 89.6409C92.2994 90.2866 93.154 90.0628 93.8283 89.5454C95.1353 88.5423 93.8757 87.1784 92.6613 87.37ZM94.6663 90.3376C92.7542 92.1884 89.6897 91.677 88.7688 89.1129C88.1877 87.4945 89.1941 85.3176 90.7904 84.6764C94.5476 83.1675 97.7052 87.3961 94.6663 90.3376Z" fill="#DC1E25"/>
<path d="M107.729 89.6057C108.291 90.0881 109.01 89.951 109.573 89.5454C111.896 87.8744 107.915 85.8906 107.22 88.1065C107.043 88.6692 107.296 89.2341 107.729 89.6057ZM106.56 85.2045C107.77 84.2101 109.279 84.5244 110.522 85.3019C113.258 87.0119 112.611 91.741 108.842 91.3757C106.012 91.1012 104.21 87.1369 106.56 85.2045Z" fill="#DB1E25"/>
<path d="M106.455 128.412C106.857 128.887 107.444 129.423 107.929 129.822C108.553 130.336 110.327 131.372 110.557 132.046C110.763 132.648 110.318 133.474 109.833 133.836C108.908 134.524 108.204 133.855 107.104 133.945C106.376 134.005 105.582 134.622 105.008 134.581C104.27 134.529 103.306 133.981 102.342 133.945C101.455 133.911 100.83 134.358 100.017 133.889C99.8362 133.785 99.6767 133.568 99.453 133.446C98.5847 132.971 97.2216 133.236 96.3472 133.624C95.6777 133.921 95.4366 134.385 94.562 134.311C94.3464 134.292 92.8427 133.717 92.6206 133.596C91.891 133.199 92.0215 132.664 92.3706 132.027C93.0509 130.785 95.0794 129.828 96.1646 128.864C98.2478 127.012 98.7408 125.12 102.163 125.335C104.8 125.5 105.009 126.709 106.455 128.412Z" fill="#DD1D25"/>
<path d="M92.661 87.3703C93.8754 87.1787 95.1351 88.5426 93.8281 89.5456C93.1537 90.0631 92.2991 90.2868 91.6277 89.6412C90.8236 88.8679 91.7738 87.5103 92.661 87.3703Z" fill="#18110F"/>
<path d="M107.729 89.6054C107.296 89.2338 107.043 88.669 107.22 88.1062C107.915 85.8904 111.896 87.8741 109.574 89.5451C109.01 89.9507 108.291 90.0879 107.729 89.6054Z" fill="#18110F"/>
<path d="M65.2225 64.7381C67.3265 65.2821 69.5219 66.0035 71.4169 67.1942C73.5186 68.5147 75.068 71.262 75.8403 73.5729C75.69 73.6771 75.3902 73.4213 75.2617 73.3276C74.344 72.6575 73.6981 72.0495 72.5797 71.6155C72.2373 71.4826 71.5964 71.253 71.5364 71.836C71.4872 72.3137 72.7863 73.1744 73.133 73.6255C73.3075 73.8527 73.4841 74.1656 73.6178 74.4222C73.7465 74.6689 73.96 75.0808 73.9652 75.3563C73.2496 74.7175 72.4652 74.1361 71.6322 73.6613C71.1753 73.401 69.3232 72.4577 68.9126 72.454C68.6928 72.4519 68.4965 72.5746 68.5312 72.8175C68.5786 73.1505 69.9548 75.0647 70.2596 75.4003C71.1079 76.3346 72.2131 76.9795 73.0946 77.8746L69.4337 76.9134C69.4495 77.6038 72.4573 80.6856 72.1786 81.0325C71.8372 80.7946 70.4152 79.8131 70.0688 80.0642C69.7059 80.3274 70.4512 81.2781 70.6042 81.5552C70.6486 81.6358 70.8063 81.7837 70.6697 81.8558C69.2692 81.0207 67.8908 79.6631 66.1519 79.7641C65.7947 80.4961 66.4277 80.4595 66.8744 80.708C69.2913 82.0527 70.9932 84.6755 72.5458 86.89C70.148 86.4457 68.2435 84.8615 66.1737 83.6948C65.5262 83.5942 66.5554 84.7786 66.6904 84.9236C67.3097 85.588 68.1909 86.2407 68.8439 86.8866C69.2155 87.254 69.5658 87.6699 69.8911 88.0802C68.2991 87.7159 66.9262 86.6405 65.5939 85.7401C65.4075 85.6814 65.2478 85.6517 65.1357 85.8448C65.7771 88.4484 68.7597 89.8579 70.989 90.9199L70.0246 91.0141L66.9638 90.8751C66.3937 91.2805 66.7759 91.9363 67.1068 92.3759L70.3465 96.1831C70.233 96.3573 70.103 96.3113 69.9362 96.3197C69.4774 96.342 67.7053 95.8507 67.5245 95.9665C67.4929 95.9865 67.4265 96.2154 67.4297 96.2752C67.4642 96.8958 69.8293 98.4592 70.2573 99.0651C69.4869 98.9385 68.6675 98.6506 67.9 98.5395C67.3465 98.4595 65.98 98.2266 66.8794 99.1028C68.1882 100.378 69.7764 101.384 71.0824 102.681C71.5451 103.14 72.0017 103.599 72.3621 104.147C71.7251 104.179 71.1556 103.927 70.4941 104.017C70.3265 104.04 69.565 104.268 69.7509 104.561C69.8003 104.639 70.9413 105.358 71.1632 105.529C72.6779 106.698 74.0597 108.086 75.8405 108.862C75.8637 109.021 75.6286 108.956 75.531 108.943C75.1778 108.898 72.5363 108.034 73.0488 109.134C73.3251 109.727 75.0704 110.382 75.6826 110.626C75.8047 110.675 75.9761 110.641 75.9332 110.828C75.9105 110.924 74.1826 110.884 73.9607 110.879C73.6212 110.871 73.248 110.668 72.9124 110.83C72.5002 111.029 72.8703 111.376 73.1014 111.555C73.9292 112.197 75.0338 112.614 75.8408 113.301C75.2065 113.541 72.2094 113.192 73.5101 114.442C74.12 115.027 75.1538 115.361 75.8395 115.864C75.4368 116.319 74.6356 116.327 74.0637 116.268C73.8552 116.247 73.463 115.969 73.3193 116.18C72.993 116.66 74.2871 117.475 74.6509 117.603C74.0994 118.136 72.5703 117.396 72.1778 117.784C71.8378 118.121 72.6413 118.717 72.9119 118.93V119.205C71.9741 119.263 71.1103 119.375 70.1657 119.205C66.9038 118.618 64.7461 115.526 62.525 113.344C60.1785 111.038 57.6576 108.852 54.8706 107.083C53.9415 106.494 52.9619 105.901 51.9493 105.473C51.8241 105.309 53.2093 104.995 53.3211 104.969C56.0982 104.333 59.404 103.766 62.2436 103.639C63.0222 103.605 64.2031 103.767 64.9017 103.642C65.0222 103.621 65.1617 103.555 65.1304 103.416C63.7017 101.742 62.0346 99.94 60.1241 98.8093C58.0914 97.6059 55.8421 96.6729 54.0531 95.0853C51.4061 92.7362 47.7663 88.2247 46.7159 84.8468C46.554 84.3267 46.5753 83.7514 46.2734 83.321V82.7717C48.4206 83.3302 50.2864 84.6576 52.3168 85.4706C53.5988 85.9841 55.1533 86.3989 56.509 86.6792C58.2706 87.0435 60.0704 87.3198 61.8335 86.7966C61.8572 86.6737 61.8162 86.5665 61.7662 86.4573C61.5625 86.012 59.0518 84.5291 58.4564 84.0909C54.8151 81.4099 50.6676 77.7343 48.7286 73.5884C48.0674 72.1745 47.5265 70.4179 47.4642 68.8579L48.7433 69.6375C50.8739 70.6953 53.044 71.9037 55.4744 72.0603C56.4048 72.1203 57.386 72.0013 58.3151 72.0576C58.9378 72.0953 59.624 72.2953 60.2346 72.3348C61.5353 72.419 61.6501 72.1298 61.239 70.9643C60.6439 69.2767 59.7627 67.5251 58.9539 65.9261C58.1774 64.3912 57.0204 63.0723 57.5337 61.1675C57.6729 61.1364 57.7487 61.1996 57.8603 61.2528C58.6849 61.6465 59.8351 62.7414 60.7073 63.2573C62.4302 64.2761 63.4285 64.2743 65.2225 64.7381Z" fill="#F0C00C"/>
<path d="M104.493 43.1342C105.087 43.2929 105.706 43.32 106.304 43.4745C108.629 44.0751 108.865 45.0727 110.491 46.336C112 47.5078 113.608 46.2673 115.183 46.0889C119.138 45.6409 120.957 49.8842 118.939 53.0484C118.316 54.0249 117.831 54.5926 116.668 54.76C116.859 54.4915 116.699 54.625 116.577 54.5352C115.781 53.9522 115.361 53.4556 114.378 53.0679C113.086 52.5586 111.825 52.567 110.534 52.2433C108.283 51.679 108.182 50.0121 106.642 48.7209C104.952 47.3038 103.401 47.7268 101.486 47.2851C100.903 47.1506 100.513 46.9038 100.008 46.6127C100.067 46.3445 99.875 45.9931 99.9193 45.6593C100.035 44.7842 101.115 44.1944 101.776 43.7583L103.761 43.1342H104.493Z" fill="#F0C00C"/>
<path d="M74.9253 130.464C78.2516 129.891 80.6278 127.726 83.0737 125.568C83.2701 125.395 84.8224 123.716 84.994 123.873C85.2525 124.967 85.4344 126.084 85.3602 127.213C85.1209 130.843 82.8276 132.39 84.4013 136.504C85.7836 140.118 88.3819 141.668 92.2757 141.361C93.6512 141.253 95.0156 140.55 96.3448 140.212C99.4227 139.431 103.179 139.793 106.211 140.693C107.116 140.961 108.261 141.581 109.139 141.7C114.922 142.485 117.781 138.211 117.399 132.891C117.187 129.933 115.496 126.894 116.805 123.967C118.308 125.735 120.336 126.764 122.342 127.857C123.461 128.467 125.022 129.058 126.037 129.746C126.177 129.841 126.277 129.91 126.28 130.098C125.819 130.167 125.355 130.311 124.907 130.373C124.415 130.441 123.69 130.556 123.216 130.561C122.691 130.565 120.673 130.082 120.986 131.131C121.07 131.411 123.03 133.028 123.398 133.3C124.581 134.174 125.88 134.876 127.264 135.384L130.033 136.28C130.089 136.493 129.561 136.952 129.393 137.102C128.676 137.741 127.887 138.134 126.937 138.308C126.132 138.455 124.602 138.358 123.996 138.753C123.02 139.388 123.608 140.17 124.177 140.852C125.799 142.797 128.667 143.636 130.793 144.854C132.658 145.922 133.5 147.434 133.317 149.63C133.229 150.684 132.376 152.973 131.79 153.871C131.727 153.967 131.691 154.104 131.544 154.083C130.975 152.343 129.341 150.465 127.651 149.735C127.002 149.455 126.212 149.329 125.576 149.065C124.889 148.78 124.365 148.244 123.718 147.901C120.571 146.232 118.895 149.109 116.003 148.659C115.527 148.585 114.972 148.217 114.491 148.066C113.16 147.65 111.329 147.418 109.985 147.81C108.124 148.354 107.307 149.166 105.201 148.385C102.836 147.507 101.337 147.099 98.742 147.644C97.7369 147.855 96.6477 148.583 95.7515 148.681C93.7233 148.905 91.9696 147.626 89.8103 147.867C88.4907 148.014 87.0602 149.12 85.7726 149.146C84.5232 149.171 83.1477 147.788 81.6569 147.671C79.55 147.506 79.2413 148.396 77.6995 149.304C76.2387 150.165 75.074 150.276 73.9202 151.749C73.4146 152.395 73.0624 153.28 72.5857 153.893C72.3118 154.246 72.1844 153.973 71.958 153.708C70.8057 152.359 70.2588 149.937 70.572 148.218C71.3384 144.011 75.9458 143.896 78.259 140.892C78.9112 140.045 78.9857 139.571 77.8342 139.227C76.2292 138.746 74.0207 139.259 73.0958 137.382C73.1248 137.248 74.3934 136.846 74.6477 136.732C75.8544 136.188 76.9946 135.465 77.9019 134.493C78.129 134.25 79.685 132.391 79.6866 132.248C79.6937 131.581 78.2251 132.037 77.8066 132.025C76.5882 131.989 75.3559 131.388 74.4205 130.648C74.2634 130.434 74.8677 130.474 74.9253 130.464Z" fill="#F0C00C"/>
<path d="M131.223 125.888C132.485 126.792 133.215 126.04 134.153 125.247C134.331 125.096 134.883 124.483 135.068 124.423C135.218 124.374 135.892 124.419 136.081 124.462C136.54 124.568 137.118 125.148 137.226 125.606C137.639 127.37 135.602 128.132 134.244 128.451C133.455 128.551 132.746 128.576 131.956 128.451C130.99 128.298 130.171 127.924 129.392 127.352C129.207 127.216 128.709 126.838 128.569 126.711C126.213 124.589 124.873 121.23 123.367 118.503C120.218 112.8 118.225 107.623 111.429 105.633C110.398 105.331 108.426 104.66 107.9 105.996C107.619 106.711 108.267 107.293 108.131 108.242C108.037 108.895 107.336 110.205 106.573 110.033C105.619 109.817 105.275 106.539 103.667 108.355C102.854 109.273 102.521 110.451 101.037 110.668C98.9089 110.978 98.8418 109.76 97.7574 108.502C96.986 107.607 95.6187 107.63 95.2247 108.795C95.016 109.411 95.8358 109.937 95.0652 110.28C94.4064 110.574 93.4007 110.288 92.9104 109.779C92.5306 109.386 92.1276 108.167 92.1287 107.625C92.1297 107.12 92.4345 106.808 92.4961 106.43C92.6769 105.317 92.1692 104.767 91.034 105.059C89.4011 105.48 86.0024 109 84.9064 110.374C81.4348 114.726 78.198 124.88 72.7287 126.711C70.6429 127.41 63.9328 126.813 63.5054 123.989C63.3483 122.952 64.0879 121.781 65.1762 121.677C66.6725 121.533 67.4655 122.837 68.6207 123.45C70.252 124.317 71.8212 124.08 73.2706 122.997C73.4841 122.837 73.5286 122.613 73.5525 122.592C73.5612 122.584 73.676 122.691 73.7815 122.599C78.2214 118.735 80.1388 112.922 84.169 108.721C86.5201 106.27 88.9521 103.995 92.2708 103C93.5502 102.617 95.82 102.39 96.757 101.445C98.7589 99.427 98.7236 94.423 98.2436 91.8134C98.1372 91.2359 97.7646 90.4537 97.8146 89.877C97.8725 89.208 98.5189 88.4568 98.7005 87.8262C98.9029 87.1229 98.7034 86.4675 98.9566 85.7938C99.2472 85.0199 100.051 84.1695 100.667 85.1789C100.952 85.645 100.902 86.1746 101.09 86.6792C101.782 88.5468 102.801 88.7353 102.666 91.2428C102.581 92.8365 102.184 94.6052 102.109 96.2702C101.998 98.765 102.321 101.019 104.592 102.4C106.241 103.402 106.793 103.075 108.566 103.186C114.499 103.557 119.222 106.565 122.086 111.728C122.813 113.04 123.344 114.478 124.067 115.788C125.499 118.38 128.935 124.246 131.223 125.888Z" fill="#EFBF0C"/>
<path d="M114.563 56.7739C115.891 58.3528 115.227 59.7962 116.162 61.2623C116.414 61.6578 116.639 61.946 117.161 61.8955C118.006 61.8139 119.111 60.1821 119.634 59.5107C121.178 57.5264 122.314 55.0449 124.869 54.3096C128.105 53.3784 130.666 53.5858 133.373 55.6772C135.008 56.9405 135.692 59.2893 134.244 60.9848C133.005 62.4359 129.963 61.87 128.25 61.9929C125.771 62.1706 123.467 62.9875 121.839 64.9199C119.334 67.8946 120.309 73.366 116.788 75.5219C116.257 75.8472 115.051 76.4202 114.45 76.346C113.713 76.2546 110.371 74.6652 109.618 74.2141C109.169 73.9453 108.485 73.4939 108.561 72.882C108.644 72.2087 109.421 70.9854 109.688 70.2532C110.952 66.7902 110.918 64.3114 108.833 61.2678C108.132 60.245 106.242 58.4671 106.233 57.2779C106.227 56.2557 107.453 54.5567 108.367 54.1027C109.462 53.56 111.045 54.1882 112.061 54.7444C112.86 55.1816 114.012 56.1191 114.563 56.7739Z" fill="#F0C00B"/>
<path d="M79.686 57.14C79.7024 57.1558 79.7189 57.3189 79.8168 57.4171C80.5306 58.1328 81.6914 59.6754 82.3857 60.1615C83.5664 60.988 84.4515 59.8804 85.0111 58.9408C85.9249 57.4063 86.3416 54.9436 88.5164 54.7567C89.6913 54.6556 92.6778 54.6764 92.9374 56.2009C93.2619 58.1059 91.7103 58.6149 90.7157 59.7936C87.9889 63.0238 86.8166 66.9334 88.2661 71.0332C88.4953 71.6818 89.1575 72.7001 89.1162 73.2947C89.0557 74.1724 88.1948 74.1122 87.5602 74.3969C85.1501 75.479 83.5311 78.0162 80.662 76.1656C75.5822 72.8891 80.0464 64.2303 73.096 62.1279C71.1747 61.5467 68.2518 62.0231 66.7787 61.1677C66.2202 60.8435 65.1698 59.7591 64.8739 59.1821C63.7109 56.9163 66.545 54.2011 68.5898 53.5957C71.9785 52.5927 77.2167 54.7591 79.686 57.14Z" fill="#F0C00B"/>
<path d="M89.6641 48.8096C88.8532 47.715 88.6184 45.9626 89.7639 45.0187C90.9567 44.0362 93.3508 43.5925 94.7892 44.1881C96.6423 44.9553 97.4888 46.3121 98.1773 48.0774C98.4455 48.7646 99.1743 50.5957 99.188 51.2403C99.2133 52.417 96.5592 53.3614 95.609 53.1627C94.6131 52.9545 94.3404 51.5627 93.4789 51.1739C92.8057 50.8699 91.8213 51.0371 91.2786 50.6278C91.0933 50.4883 89.8428 49.0507 89.6641 48.8096Z" fill="#F0C00C"/>
<path d="M87.8328 50.3659C87.9994 50.697 87.8744 51.3855 87.7293 51.7266C87.2095 51.7714 86.7923 51.5848 86.2525 51.6698C85.2179 51.8327 84.3206 52.7471 83.7671 53.578C83.221 54.3979 82.9062 55.8815 81.791 54.4852C81.6352 54.29 81.462 53.9017 81.2802 53.6691C81.0043 53.3164 80.47 52.9971 80.3661 52.5694C80.2221 51.9759 80.4229 51.1905 80.8983 50.8004C81.2936 50.4764 84.0706 49.5434 84.583 49.5434C84.7886 49.5431 86.9824 49.9506 87.2153 50.0222C87.3037 50.0493 87.817 50.3343 87.8328 50.3659Z" fill="#EFBF0D"/>
<path d="M106.173 100.498C104.887 99.2117 104.774 96.0752 105.292 94.4175C105.837 92.6744 106.714 93.3418 108.106 93.394C109.088 93.4311 110.088 93.4408 111.018 93.095C111.864 92.7802 112.427 92.1095 113.219 91.7255C113.82 91.4339 115.716 90.8301 116.349 90.8201C118.054 90.7935 119.304 93.9785 119.483 95.3819C119.731 97.3341 118.289 99.2304 117.037 100.579C116.027 101.667 115.553 102.262 113.972 102.365C112.163 102.483 107.476 101.801 106.173 100.498Z" fill="#F0BF0B"/>
<path d="M82.4645 98.9421C81.4506 97.9438 80.3499 94.8546 80.5199 93.4465C80.6505 92.3655 82.2097 91.0271 83.0811 90.4233C84.6001 89.3713 85.3096 89.5787 86.6862 90.6468C88.7902 92.2789 89.5948 94.1166 92.6892 93.5323C93.0719 93.4601 94.18 92.9938 94.3732 93.0214C94.6503 93.0609 95.2891 93.861 95.3694 94.1387C95.6092 94.9691 95.098 97.8561 94.7693 98.7247C94.5819 99.2208 94.1042 99.967 93.7386 100.349C92.6258 101.511 91.7628 101.002 90.3926 101.305C89.7011 101.458 88.7373 102.067 88.0856 101.975C86.5754 101.762 85.561 99.8799 84.653 99.7285C83.6915 99.5685 83.263 99.7285 82.4645 98.9421Z" fill="#F0BF0B"/>
<path d="M113.319 84.8394C112.189 83.6337 110.521 82.394 108.83 82.2343C108.397 82.1932 106.672 82.3388 106.501 82.07C106.304 81.7629 106.505 81.3202 106.621 81.0086C106.929 80.1768 108.355 77.4456 109.04 77.0198C109.781 76.5594 110.942 77.2187 111.696 77.5375C114.462 78.7082 117.588 80.7893 120.7 79.2509C121.468 78.8711 122.351 77.6617 123.061 78.8053C123.487 79.4917 123.104 79.96 123.009 80.6451C122.786 82.2585 122.957 82.7738 123.075 84.2836C123.173 85.5438 122.724 87.8294 121.553 88.5255C120.485 89.1599 116.854 89.1267 115.732 88.6056C114.851 88.1963 114.687 86.935 114.272 86.1291C113.991 85.584 113.729 85.2766 113.319 84.8394Z" fill="#F0BF0B"/>
<path d="M99.7109 66.9548C100.766 66.7982 102.116 68.5887 102.645 69.3776C103.078 70.0221 104.861 73.2576 104.943 73.8538C104.992 74.2089 104.898 74.4965 105.021 74.874C105.153 75.2769 105.573 75.4638 105.762 75.7815C106.322 76.7237 105.782 77.2183 105.543 78.0995C105.274 79.0952 105.35 79.9187 104.445 80.6633C103.1 81.7701 102.904 80.6736 102.069 79.9316C99.9341 78.0329 99.3366 81.3205 97.3979 81.3071C96.4359 81.3005 95.3958 79.6929 94.8986 78.9554C93.7 77.1775 93.0972 76.1042 93.8489 73.9114C94.3198 72.5378 96.5357 71.1802 97.4827 69.8561C98.1662 68.9004 98.336 67.1588 99.7109 66.9548Z" fill="#F0BF0B"/>
<path d="M88.3579 77.3926C90.0024 77.1094 91.6945 78.3486 92.5388 79.6672C92.9192 80.2615 93.126 80.6332 92.9526 81.3475C92.5949 82.8227 91.8585 82.3942 90.6514 82.6156C88.8025 82.9546 87.2372 83.6347 86.3789 85.3915C86.1049 85.953 86.0626 86.7807 85.4361 87.0118C84.7668 87.259 84.1275 87.1966 83.4445 87.6748C82.761 88.1536 82.2464 89.1906 81.4881 89.6549C80.4872 90.2673 79.2702 89.8201 78.6385 88.899C78.0247 88.0038 78.3582 86.8839 78.215 85.9356C78.1421 85.4521 77.6465 84.9128 77.5965 84.4403C77.5225 83.7415 77.9202 82.7672 77.8441 82.0036C77.7331 80.8887 76.6063 80.4013 77.1188 79.1521C77.2588 78.811 77.4762 78.461 77.892 78.5634C79.0043 78.9181 80.0942 79.4632 81.2413 79.7054C82.6667 80.0062 84.8229 79.6051 86.086 78.8739C86.7442 78.4928 87.6731 77.5106 88.3579 77.3926Z" fill="#F0BF0B"/>
<path d="M98.9769 55.6058C99.7207 55.4866 101.126 55.8364 101.741 56.2762C102.779 57.0184 102.576 58.6545 103.011 59.6747C103.237 60.2045 103.864 60.7467 104.203 61.2291C105.1 62.5038 106.737 64.9981 106.872 66.5244C107.012 68.1084 106.279 69.0777 104.816 67.9397C103.326 66.7808 103.515 64.8415 101.142 64.5646C98.0439 64.2033 97.5312 66.0404 95.7525 67.9431C95.0755 68.6674 93.2807 70.8148 92.5751 69.1041C91.4744 66.4368 93.6955 63.8016 94.92 61.7097C96.296 59.3591 94.8815 57.2987 98.0233 55.9338C98.2589 55.8314 98.7403 55.6437 98.9769 55.6058Z" fill="#F0BF0B"/>
<path d="M75.9998 92.4057C76.801 92.2694 77.9536 92.785 78.1083 93.6404C78.2807 94.5932 77.9228 94.9966 78.6811 95.9052C79.0022 96.29 79.6078 96.5464 79.7546 97.0285C80.0013 97.8379 80.07 100.074 79.7825 100.856C79.402 101.892 77.7606 102.11 76.8 101.997C76.0385 101.907 75.9961 101.223 75.6922 100.725C75.504 100.416 74.9089 99.6271 74.8552 99.3652C74.7096 98.6543 75.305 97.5057 75.2002 96.5479C75.1107 95.7297 74.3583 95.3083 74.4746 94.2686C74.5601 93.5069 75.2047 92.541 75.9998 92.4057Z" fill="#EFBE0C"/>
<path d="M120.948 102.103C121.429 102.002 122.185 102.958 122.526 103.232C123.609 104.102 124.715 104.585 126.141 104.465C126.531 104.433 128.02 103.911 128.11 103.957C128.851 104.335 127.77 106.355 127.417 106.839C126.396 108.239 123.622 108.906 122.022 108.313C120.691 107.821 119.546 106.313 119.504 104.874C119.485 104.234 120.239 102.25 120.948 102.103Z" fill="#EFBF0C"/>
<path d="M82.6849 102.935C83.2295 102.862 84.2344 102.991 84.2465 103.687C84.2575 104.324 83.5774 106.095 83.1623 106.616C82.6015 107.319 81.2834 107.96 80.3814 107.847C79.885 107.784 79.4741 107.271 79.0841 107.216C78.6882 107.159 78.0436 107.349 77.5315 107.308C75.7646 107.165 73.6898 104.739 75.4298 103.369C76.2255 102.742 76.7379 103.56 77.5759 103.694C78.3484 103.816 80.2456 103.573 81.0796 103.435C81.6779 103.336 82.1782 103.003 82.6849 102.935Z" fill="#EFBF0C"/>
<path d="M125.798 97.4404C126.171 97.3775 126.698 97.3804 126.965 97.6952C127.034 97.7778 127.695 99.3565 127.725 99.4986C127.89 100.291 126.937 101.741 126.251 102.103C125.464 102.519 124.21 102.473 123.54 101.852C123.42 101.742 122.523 100.154 122.479 99.984C122.053 98.329 123.524 98.3614 124.539 98.011C124.946 97.8705 125.367 97.5133 125.798 97.4404Z" fill="#EFBF0C"/>
<path d="M101.037 50.1141C101.175 49.9567 101.572 50.0046 101.767 50.0243C102.265 50.0749 104.154 50.4957 104.452 50.8195C104.726 51.1174 104.865 52.2631 104.996 52.7469C105.182 53.4367 105.738 53.8815 104.955 54.4429C103.807 55.2652 103.123 53.8023 102.326 53.4036C101.611 53.0459 100.939 53.4099 100.916 52.2421C100.91 51.982 101.017 51.7578 101.019 51.5141C101.02 51.2314 100.911 50.2583 101.037 50.1141Z" fill="#EEBE0C"/>
<path d="M124.794 91.7664C125.704 91.634 127.648 91.8459 127.466 93.154C127.374 93.8183 125.712 95.0938 125.074 95.2501C124.25 95.4518 123.55 95.0209 123.03 94.3979C122.078 93.2559 123.722 91.9225 124.794 91.7664Z" fill="#EEBE0C"/>
<path d="M135.8 64.0056C137.234 63.66 139.099 63.3974 140.331 62.5409C140.572 62.374 141.564 61.1602 141.75 61.3505C141.947 62.4356 141.38 63.664 140.817 64.5825C140.198 65.5919 139.21 66.545 138.264 67.248C136.161 68.8106 134.991 68.5948 133.878 71.3289C133.782 71.5639 133.521 71.8082 133.604 72.1524C134.103 72.3025 134.08 71.9345 134.152 71.8782C134.538 71.5776 137.502 70.5088 138.131 70.3185C139.416 69.9302 141.485 69.4952 142.806 69.5865C145.489 69.7715 147.805 70.1584 150.524 69.5294C151.291 69.3517 151.987 68.9917 152.735 68.7661C152.732 70.2048 151.364 71.6908 150.402 72.7033C148.644 74.5536 146.413 75.5782 144.54 77.2767C142.816 78.8393 142.136 80.1579 140.835 81.9477C140.827 81.959 140.665 81.9135 140.647 81.9945C140.548 82.4641 141.022 82.2585 141.201 82.2222C142.136 82.0337 142.994 81.6421 143.909 81.4058C147.421 80.4982 150.291 81.9645 153.883 81.7684C154.875 81.7142 155.677 81.5305 156.579 81.1241C156.868 81.4473 155.359 84.2588 155.096 84.7205C153.627 87.2991 151.583 89.0514 148.797 90.1392C148.164 90.3867 147.475 90.5161 146.853 90.7575C141.536 92.8218 137.952 96.4979 135.434 101.537C135.383 101.64 135.058 101.802 135.16 102.086C135.283 102.219 135.757 101.74 135.8 101.721C139.914 99.8995 142.482 99.8382 146.907 100.546C148.097 100.736 149.779 101.02 150.885 101.422C150.955 101.448 151.17 101.412 151.087 101.582C151.019 101.72 148.824 102.918 148.458 103.164C146.019 104.803 142.818 107.186 141.164 109.602C138.782 113.08 137.89 116.949 133.42 118.473C132.429 118.81 131.355 119.081 130.308 119.113C130.833 118.605 131.721 118.433 132.047 117.741C131.522 117.755 130.985 117.723 130.471 117.621C130.301 117.587 130.057 117.609 130.125 117.375C130.607 117.341 132.666 115.859 132.597 115.5C132.39 115.212 132.074 115.442 131.817 115.451C131.499 115.462 131.123 115.474 130.81 115.452C130.673 115.442 130.545 115.523 130.583 115.316C131.159 114.776 133.397 113.17 133.333 112.386C133.284 111.78 132.308 112.683 132.019 112.815C131.643 112.986 131.175 113.102 130.765 113.162C131.36 112.574 131.924 111.954 132.36 111.234C132.522 110.965 133.364 109.542 132.912 109.411C132.727 109.358 130.937 110.726 130.401 110.555C131.029 109.823 131.514 108.889 131.866 107.993C132.031 107.573 132.627 105.944 132.42 105.628C131.982 104.956 130.485 106.273 130.17 106.663C130.23 104.935 131.484 103.56 132.278 102.089C132.516 101.647 132.775 101.14 132.978 100.684C133.194 100.201 134.024 98.2895 133.773 97.8897L133.303 97.7968L130.858 99.9813C131.104 98.758 131.684 97.6257 132.376 96.6026C132.56 96.3302 133.67 95.0098 133.682 94.8847C133.699 94.7016 133.401 94.5163 133.227 94.5315C132.776 94.5715 131.971 95.273 131.543 95.4951C131.474 95.5096 131.484 95.4067 131.499 95.3603C132.179 93.2292 134.302 91.1518 135.51 89.301C136.487 87.8033 134.569 88.5495 133.885 88.958C132.717 89.656 132.049 90.8794 131.041 91.7427C131.11 91.2447 131.276 90.7472 131.453 90.2793C132.038 88.7377 133.054 87.2277 133.67 85.722C133.844 85.2966 134.03 84.8958 133.603 84.5565C133.504 84.5015 133.396 84.4994 133.285 84.5039C132.89 84.5197 131.378 85.7409 130.997 86.0694C130.695 86.3292 130.457 86.6658 130.125 86.8908C130.395 85.6167 130.96 84.3204 131.574 83.1679C131.709 82.9126 132.699 81.6845 132.097 81.6721C131.896 81.6682 130.606 82.7033 130.299 82.9007C130.009 83.0873 129.701 83.2579 129.393 83.4124C130.065 80.937 131.246 78.6135 131.979 76.1591C132.129 75.6598 132.404 74.9668 132.239 74.4786C131.916 74.0754 130.395 74.8705 130.005 75.1C129.027 75.6754 128.282 76.4715 127.607 77.3701C127.496 76.7318 128.799 73.6166 128.476 73.2518C128.117 73.335 127.889 73.7516 127.605 73.9817C126.841 74.601 125.789 75.124 125.546 76.1799C125.413 76.1965 125.382 75.9401 125.373 75.852C125.244 74.6602 125.79 73.8388 125.822 72.7025C125.683 72.5572 124.756 73.2971 124.589 73.4371C124.095 73.8509 123.682 74.3709 123.259 74.8542L123.076 74.7597C123.432 73.2987 123.493 71.7218 124.158 70.3516C124.422 69.8084 125.041 68.8959 125.418 68.4071C128.121 64.8963 131.862 64.9552 135.8 64.0056Z" fill="#F0C00C"/>
<path d="M121.062 121.676C120.208 121.405 118.972 120.467 118.067 120.741C117.793 120.823 117.522 121.091 117.244 121.2C115.59 121.849 114.796 120.436 113.239 120.3C110.382 120.051 108.98 122.119 105.636 121.128C104.436 120.773 103.245 119.747 101.976 119.746C100.497 119.746 99.2594 121.137 97.7865 120.922C96.2708 120.701 94.9358 119.51 93.2624 120.103C91.1744 120.843 90.3009 121.913 87.7068 121.665C86.5424 121.554 85.4296 120.81 84.2654 121.175C83.7682 121.331 83.375 121.704 82.8907 121.859C82.5225 120.477 83.3553 119.121 84.2159 118.105C85.0363 117.137 86.3155 116.408 87.0469 115.444C87.7855 114.47 88.1871 113.087 88.6585 111.974L88.8404 112.019C88.6666 112.453 89.276 114.162 89.7639 114.037L90.8528 112.98C90.8151 113.583 90.8449 114.317 91.3115 114.765C92.0009 115.426 92.2901 114.461 92.6825 114.031C92.7994 113.902 93.578 113.071 93.6914 113.164C93.3537 113.637 93.8456 114.919 94.3831 114.996C95.0856 115.098 95.6059 113.814 96.0707 113.438C96.0747 113.793 96.1113 115.632 96.654 115.536C97.4454 115.027 97.557 114.039 98.1758 113.438C98.3061 113.898 98.4129 114.444 98.6174 114.874C99.3552 116.425 99.7374 114.366 100.465 113.987C100.361 114.732 100.886 115.832 101.592 116.115C102.346 116.416 102.907 114.929 102.982 114.354C103.576 114.713 103.754 115.482 104.172 115.91C104.922 116.678 104.843 115.743 105.039 115.219C105.214 114.753 105.432 114.397 105.821 114.079C105.925 114.575 105.794 115.139 106.024 115.613C106.065 115.699 106.047 115.754 106.187 115.732L106.424 115.669C106.676 115.074 106.835 114.482 107.378 114.079L107.802 115.209C107.991 115.55 108.209 115.205 108.278 114.979C108.436 114.459 108.339 113.752 108.842 113.347C109.038 113.794 109.327 114.302 109.835 114.43C110.376 114.102 110.273 113.378 110.58 112.889C110.903 113.06 111.658 114.257 111.947 114.168C112.098 114.121 112.257 113.392 112.349 113.192C112.545 112.768 112.943 112.433 112.824 111.882C112.92 111.765 113.487 112.342 113.554 112.476C113.68 112.729 113.765 113.691 114.058 113.621C114.434 113.53 114.532 111.6 114.7 111.609C115.361 112.241 115.257 113.184 115.522 113.989C116.01 115.469 117.977 116.768 119.004 117.922C119.926 118.959 120.629 120.364 121.062 121.676Z" fill="#EFBF0B"/>
<path d="M112.367 125.887C112.505 125.908 112.537 126.061 112.597 126.16C113.496 127.656 114.855 130.589 115.178 132.276C115.868 135.893 115.758 138.921 111.562 139.683C108.903 140.167 108.074 139.316 105.723 138.71C102.932 137.99 99.5537 137.807 96.7109 138.289C93.4135 138.849 89.325 140.988 87.0275 137.45C84.1121 132.959 86.977 130.841 88.7817 126.882C89.0178 126.364 89.1305 125.734 89.4803 125.338C89.6548 126.254 89.7277 127.197 89.6682 128.134C89.54 130.15 88.5001 132.615 89.9835 134.402C90.9766 135.598 91.5374 134.966 92.666 135.381C93.1695 135.566 93.5588 136.08 94.1018 136.142C95.4518 136.295 96.4235 134.711 98.0574 135.299C98.5028 135.459 99.3116 136.065 99.6922 136.136C101.279 136.431 101.782 135.191 103.549 136.032C103.97 136.234 104.434 136.727 104.904 136.783C105.738 136.882 106.34 136.331 107.113 136.241C109.071 136.015 110.064 137.001 111.581 135.034C112.289 134.114 112.658 132.299 112.648 131.15C112.643 130.515 112.402 129.718 112.363 129.05C112.302 128.018 112.414 126.925 112.367 125.887Z" fill="#EFBE0C"/>
<path d="M174.528 100.264C174.528 141.279 141.279 174.528 100.264 174.528C59.249 174.528 26 141.279 26 100.264C26 59.2489 59.249 26 100.264 26C141.279 26 174.528 59.2489 174.528 100.264Z" stroke="#F0C00C" stroke-width="1.316" stroke-miterlimit="10"/>
<path d="M164.549 100.264C164.549 135.767 135.767 164.549 100.264 164.549C64.7599 164.549 35.9785 135.767 35.9785 100.264C35.9785 64.7603 64.7599 35.9789 100.264 35.9789C135.767 35.9789 164.549 64.7603 164.549 100.264Z" stroke="#F0C00C" stroke-width="1.316" stroke-miterlimit="10"/>
<path d="M31.9897 86.3506L33.3017 81.7557L34.923 82.973L35.4839 81.0085C35.8329 79.6456 35.7863 78.7965 35.3441 78.462L34.4377 77.7782L35.2141 75.0599C35.2233 75.0683 35.2389 75.0757 35.2599 75.0817L36.0953 75.7105C36.3701 75.9624 36.588 76.2819 36.7494 76.6691C37.1168 77.549 37.0539 78.8521 36.5607 80.5789L34.3966 88.157L31.9897 86.3506ZM32.7529 81.3388L31.4409 85.9337L30.0488 84.8857L32.1971 77.3637C32.6461 75.7921 33.2909 74.9415 34.1316 74.8114C34.2942 74.7885 34.4556 74.7912 34.6151 74.8193L33.8752 77.4095C33.4033 77.3616 33.029 77.8211 32.7527 78.7889L32.1528 80.8898L32.7529 81.3388Z" fill="#DC1D25"/>
<path d="M40.958 65.1566L40.8635 65.3424L43.2163 65.4619L41.0522 69.7223L38.6658 69.6699L38.5221 69.9523L40.0442 71.6329L37.8804 75.8936L35.8617 73.6616L41.1338 63.2818C41.3691 63.8379 41.3104 64.4628 40.958 65.1566ZM39.7175 62.553C40.0242 62.4406 40.3582 62.4825 40.7201 62.6786L39.4399 65.1992L39.3325 65.0792C38.9624 64.9973 38.5358 65.4321 38.0523 66.3841L37.0629 68.3321L37.5664 68.8872L35.4027 73.1476L34.2285 71.8498L37.7709 64.8755C38.5187 63.4281 39.1675 62.6541 39.7175 62.553Z" fill="#DC1D25"/>
<path d="M43.6414 57.2169C43.6451 56.551 43.858 55.9454 44.2812 55.4011L48.0055 50.6066L48.9128 52.1032L45.9812 55.877L45.5838 55.2197L45.4046 55.4503L45.3927 56.6344L43.638 58.8932L43.6414 57.2169ZM45.3614 59.9784L45.3569 62.3088L43.6274 64.5349L43.6335 59.946L45.3782 57.6999L45.3735 58.5624L46.6271 56.949L46.335 56.4686L49.2665 52.6946L50.826 55.2684L47.8944 59.0422L47.0993 57.7275L45.3614 59.9784Z" fill="#DC1D25"/>
<path d="M60.2538 46.7049L54.3142 51.9226C52.9897 53.0859 52.0209 53.5412 51.4068 53.2886C51.146 53.1772 50.9352 52.9667 50.7741 52.6566L50.412 51.6759C50.4088 51.6641 50.4056 51.6559 50.4017 51.6515C50.3983 51.6475 50.3969 51.6378 50.398 51.622L53.9817 48.4736L54.3644 49.503C54.4692 49.7659 54.6766 49.8649 54.9861 49.8004C55.2956 49.7359 55.7073 49.4777 56.221 49.0263L59.9114 45.7847L60.2538 46.7049ZM53.7772 47.7985L50.3001 50.8532C50.2951 50.7463 50.2969 50.6395 50.3059 50.5316C50.3148 50.4236 50.3293 50.3094 50.3488 50.1886C50.5659 48.9618 51.2866 47.8109 52.5104 46.7357L58.3624 41.5951L58.7096 42.5334L55.1256 45.6816C54.261 46.4412 53.8114 47.1468 53.7772 47.7985Z" fill="#DC1D25"/>
<path d="M64.5594 39.9305L60.5674 42.2724C60.5827 42.1669 60.6048 42.0621 60.634 41.9579C60.6633 41.8537 60.699 41.7444 60.7409 41.6291C61.1749 40.4787 62.0964 39.4899 63.5066 38.6629L66.8656 36.6923C68.2755 35.8651 69.3294 35.695 70.0274 36.1814C70.1608 36.277 70.2756 36.3902 70.3716 36.521L68.0481 37.8841C67.7399 37.5232 67.1517 37.5977 66.2836 38.1067C65.2911 38.6889 64.7163 39.2969 64.5594 39.9305ZM61.1939 44.8731C60.9588 44.7146 60.7917 44.4678 60.6919 44.133L60.5219 43.1015C60.5211 43.0891 60.5193 43.0807 60.5164 43.0757C60.5135 43.071 60.5143 43.0612 60.5182 43.0457L64.6326 40.6321L64.8137 41.7152C64.9158 42.274 65.5538 42.235 66.7269 41.5981C67.9207 40.853 68.4729 40.2066 68.384 39.6594L68.2002 38.5389L70.6388 37.1084C70.6398 37.1211 70.6459 37.1369 70.657 37.1558L70.827 38.1873C70.852 38.5597 70.7891 38.9413 70.6383 39.3327C70.2966 40.2226 69.3517 41.122 67.8025 42.0308L64.307 44.0814C62.7865 44.9734 61.749 45.2374 61.1939 44.8731Z" fill="#DC1D25"/>
<path d="M83.2271 32.2546L78.7314 33.355C78.7764 33.2582 78.8277 33.1642 78.8856 33.0726C78.9433 32.9813 79.0088 32.8865 79.0822 32.7884C79.8313 31.8037 80.997 31.1176 82.5794 30.7304L90.1614 28.8743L90.035 29.8669L85.4017 31.0012C84.2839 31.2747 83.559 31.6924 83.2271 32.2546ZM82.7197 35.9333L78.0781 37.0696L78.4506 34.1365C78.4532 34.1244 78.454 34.1157 78.4527 34.1102C78.4513 34.1049 78.4548 34.0954 78.4629 34.0817L89.8521 31.2939L89.7574 32.0298L83.0018 33.6835L82.7197 35.9333Z" fill="#DC1D25"/>
<path d="M91.9564 29.0034L96.7111 28.527L96.2516 30.2157L91.4971 30.6924L91.9564 29.0034ZM90.522 34.2598L91.3124 31.3559L96.0668 30.8798L95.2767 33.7834L90.522 34.2598Z" fill="#DC1D25"/>
<path d="M98.2891 29.7984C98.3725 29.7237 98.4573 29.6518 98.5436 29.5829C99.5343 28.842 100.844 28.503 102.472 28.5651L110.272 28.8646L109.878 29.7842L105.111 29.6013C103.961 29.5571 103.149 29.7597 102.676 30.209L98.0588 30.0316C98.1288 29.9508 98.2054 29.8732 98.2891 29.7984ZM100.227 33.5701C98.4652 33.5024 97.449 33.1658 97.1774 32.5599C97.1155 32.4296 97.0834 32.2891 97.0808 32.1388C97.0781 31.9885 97.1021 31.8309 97.1531 31.6658L97.5656 30.7054C97.5714 30.6946 97.5748 30.6865 97.5751 30.6807C97.5753 30.6751 97.5808 30.6673 97.5927 30.6565L102.359 30.8394L101.928 31.8493C101.812 32.112 101.892 32.3265 102.166 32.4925C102.441 32.6592 102.92 32.7552 103.603 32.7815L105.695 32.8618L106.493 30.9978L109.309 31.106L108.126 33.8733L100.227 33.5701Z" fill="#DC1D25"/>
<path d="M122.65 33.4927L119.904 32.8526L120.884 31.4026L123.63 32.0427L122.65 33.4927ZM115.876 31.9132L111.222 30.8278L112.203 29.3783L116.856 30.4635L115.876 31.9132ZM109.147 33.8893L110.833 31.3966L122.26 34.0612L120.574 36.554L117.829 35.9136L119.098 34.0346L115.069 33.0952L113.801 34.9742L109.147 33.8893Z" fill="#DC1D25"/>
<path d="M127.832 35.0219L124.719 33.6274L125.428 32.9215L136.137 37.7186L135.427 38.4242L132.201 36.9788L131.671 37.5091L127.302 35.5522L127.832 35.0219ZM124.681 38.1608L126.811 36.036L131.18 37.9929L129.049 40.1177L124.681 38.1608Z" fill="#DC1D25"/>
<path d="M145.668 46.8604L142.157 43.8444C142.263 43.8247 142.369 43.8118 142.477 43.8055C142.585 43.7994 142.7 43.7973 142.822 43.7999C144.067 43.8436 145.308 44.3961 146.544 45.4573L152.452 50.5331L151.572 51.0079L147.953 47.8995C147.08 47.1497 146.319 46.8033 145.668 46.8604ZM147.657 53.1201L141.66 47.9688C140.323 46.8202 139.737 45.9242 139.901 45.2812C139.975 45.0075 140.154 44.769 140.438 44.5664L141.359 44.0705C141.37 44.0658 141.378 44.0613 141.381 44.0571C141.385 44.0529 141.395 44.0502 141.41 44.0489L145.028 47.1573L144.063 47.68C143.817 47.8209 143.748 48.0401 143.855 48.3375C143.963 48.6349 144.276 49.0063 144.794 49.4519L148.521 52.6527L147.657 53.1201Z" fill="#DC1D25"/>
<path d="M155.546 55.5102C156.193 55.6713 156.73 56.0216 157.159 56.5614L160.936 61.3148L159.267 61.842L156.294 58.1006L157.027 57.8698L156.845 57.6413L155.698 57.3497L153.918 55.1101L155.546 55.5102ZM152.456 56.5275L150.193 55.9716L148.439 53.7647L152.897 54.8567L154.665 57.0834L153.829 56.8746L155.1 58.4744L155.636 58.3043L158.608 62.0457L155.739 62.9517L152.766 59.2103L154.232 58.7489L152.456 56.5275Z" fill="#DC1D25"/>
<path d="M160.731 72.0777L163.721 71.7416L164.981 74.1785L161.991 74.5146L160.731 72.0777ZM160.828 63.2289C161.491 63.1552 162.028 63.5158 162.439 64.3107L163.367 66.103C163.801 66.9427 163.96 67.577 163.845 68.0062L163.625 68.5987L164.423 69.1246C164.945 69.4804 165.425 70.0805 165.862 70.9251L166.766 72.673C167.19 73.4926 167.089 73.939 166.464 74.0125L165.667 74.1056L160.083 63.3139L160.828 63.2289ZM160.099 68.9869C160.006 68.8093 159.992 68.619 160.057 68.4168L160.82 66.1346L163.556 71.4231L160.639 69.5241C160.381 69.3633 160.2 69.1843 160.099 68.9869ZM156.408 63.7229L159.398 63.3868L160.659 65.8235L157.668 66.1596L156.408 63.7229Z" fill="#DC1D25"/>
<path d="M170.248 86.4507C170.101 86.7418 169.829 86.94 169.431 87.0435L168.643 84.3286L168.803 84.3425C169.13 84.1496 169.144 83.5403 168.847 82.5151L168.238 80.4169L167.491 80.3555L166.16 75.7661L167.904 75.9117L170.083 83.4245C170.526 84.9923 170.581 86.0012 170.248 86.4507ZM167.564 85.3971L166.065 80.2305L163.806 80.0437L162.475 75.454L165.474 75.7045L168.716 86.8861C168.164 86.6408 167.78 86.1441 167.564 85.3971Z" fill="#DC1D25"/>
<path d="M37.4131 128.091L36.5114 125.357L38.2967 125.441L39.1984 128.175L37.4131 128.091ZM35.1883 121.346L33.6599 116.711L35.4452 116.795L36.9736 121.429L35.1883 121.346ZM29.8872 116.53L32.9569 116.674L36.7101 128.054L33.6404 127.909L32.739 125.176L35.052 125.283L33.7289 121.271L31.4159 121.164L29.8872 116.53Z" fill="#DC1D25"/>
<path d="M44.2987 136.873L45.7203 139.395L43.9526 139.658L42.5311 137.136L44.2987 136.873ZM39.8293 128.941L42.2252 133.193L40.4573 133.456L38.0614 129.204L39.8293 128.941ZM41.8341 137.235L43.2559 139.758L42.1465 139.923C41.7536 139.943 41.3648 139.872 40.9806 139.71C40.0778 139.346 39.1763 138.364 38.2762 136.767L36.244 133.16C35.3605 131.593 35.1094 130.528 35.491 129.968C35.5713 129.845 35.6763 129.742 35.8055 129.659C35.935 129.576 36.0848 129.513 36.2556 129.469L37.3647 129.303L39.7606 133.555L38.6512 133.72C38.0706 133.8 38.0991 134.452 38.7371 135.676C39.4816 136.905 40.1315 137.481 40.6871 137.402L41.8341 137.235Z" fill="#DC1D25"/>
<path d="M48.5409 143.39C49.2063 143.531 49.7674 143.87 50.2244 144.405L54.2476 149.123L52.5629 149.72L49.3963 146.007L50.1362 145.746L49.9427 145.519L48.7607 145.262L46.8654 143.039L48.5409 143.39ZM45.4233 144.538L43.094 144.051L41.2261 141.86L45.8136 142.817L47.6982 145.027L46.8367 144.843L48.1906 146.431L48.7315 146.238L51.898 149.951L49.0015 150.978L45.835 147.265L47.3142 146.742L45.4233 144.538Z" fill="#DC1D25"/>
<path d="M68.8688 161.404L66.4505 159.842L67.8926 158.787L70.3109 160.348L68.8688 161.404ZM62.902 157.551L58.8022 154.904L60.2442 153.848L64.3438 156.495L62.902 157.551ZM55.752 157.131L58.2318 155.316L68.2984 161.816L65.8188 163.631L63.4005 162.07L65.2679 160.701L61.7192 158.409L59.8516 159.778L55.752 157.131Z" fill="#DC1D25"/>
<path d="M71.4228 160.451L75.8567 162.49L74.5788 163.74L70.1452 161.701L71.4228 160.451ZM67.4419 164.339L69.6393 162.19L74.073 164.229L71.8758 166.377L67.4419 164.339Z" fill="#DC1D25"/>
<path d="M87.2707 167.756L84.5922 166.963L85.6784 165.543L88.357 166.336L87.2707 167.756ZM84.161 167.519L86.8394 168.312L84.9714 170.752L80.2678 169.36L78.3383 165.795L83.0585 167.192L83.6115 168.235L84.161 167.519ZM81.5462 164.32L82.6321 166.382L75.7808 164.354L76.867 162.935L81.5462 164.32ZM73.4814 167.351L75.3496 164.91L78.0364 165.706L76.1682 168.146L73.4814 167.351Z" fill="#DC1D25"/>
<path d="M97.485 172.149L98.6063 169.288L103.495 169.326L102.373 172.187L97.485 172.149ZM99.1453 167.921L95.6621 167.893L96.0359 166.942L108.018 167.036L107.644 167.988L104.033 167.959L103.756 168.672L98.8671 168.634L99.1453 167.921Z" fill="#DC1D25"/>
<path d="M120.294 166.016L117.471 166.578L117.772 164.816L120.595 164.254L120.294 166.016ZM113.328 167.403L108.542 168.356L108.843 166.594L113.629 165.641L113.328 167.403ZM107.903 172.078L108.42 169.049L120.172 166.709L119.655 169.739L116.832 170.3L117.219 168.018L113.077 168.843L112.689 171.125L107.903 172.078Z" fill="#DC1D25"/>
<path d="M125.28 162.806C125.62 162.217 126.116 161.789 126.767 161.52L132.498 159.155L132.545 160.941L128.033 162.803L128.014 162.019L127.739 162.132L127.128 163.177L124.428 164.291L125.28 162.806ZM125.406 166.126L124.222 168.19L121.561 169.289L123.891 165.222L126.576 164.114L126.135 164.876L128.063 164.081L128.048 163.507L132.559 161.645L132.638 164.717L128.127 166.579L128.087 165.01L125.406 166.126Z" fill="#DC1D25"/>
<path d="M134.153 163.781L133.638 160.751L137.838 158.267L138.353 161.297L134.153 163.781ZM133.224 158.295L137.424 155.81L137.724 157.572L133.524 160.057L133.224 158.295Z" fill="#DC1D25"/>
<path d="M149.403 153.039L143.104 158.09C141.7 159.216 140.691 159.636 140.076 159.35C139.815 159.225 139.61 159 139.459 158.677L139.116 157.609L142.923 154.556L143.266 155.623C143.362 155.897 143.569 156.007 143.887 155.955C144.206 155.904 144.638 155.659 145.183 155.222L149.096 152.084L149.403 153.039ZM142.712 153.885L138.905 156.938L138.359 155.235L142.167 152.183L142.712 153.885Z" fill="#DC1D25"/>
<path d="M151.214 144.298C151.246 143.618 151.49 143.01 151.945 142.472L155.952 137.741L156.813 139.307L153.659 143.031L153.281 142.344L153.089 142.571L153.026 143.779L151.138 146.008L151.214 144.298ZM152.85 147.19L152.745 149.567L150.885 151.764L151.088 147.082L152.965 144.866L152.924 145.745L154.272 144.153L153.994 143.65L157.148 139.926L158.628 142.619L155.475 146.343L154.72 144.968L152.85 147.19Z" fill="#DC1D25"/>
<path d="M163.28 127.711L161.916 130.15L160.771 128.778L162.134 126.339L163.28 127.711ZM162.364 130.692L163.727 128.254L165.696 130.614L163.303 134.895L159.401 135.993L161.803 131.696L162.942 131.386L162.364 130.692ZM159.849 141.073L157.88 138.714L159.247 136.268L161.216 138.628L159.849 141.073ZM158.668 132.539L160.919 131.934L157.432 138.17L156.287 136.799L158.668 132.539Z" fill="#DC1D25"/>
<path d="M164.207 126.929L165.72 122.29L167.328 123.594L167.975 121.61C168.383 120.232 168.368 119.364 167.929 119.006L167.03 118.273L167.925 115.529C167.934 115.538 167.95 115.546 167.971 115.553L168.8 116.226C169.071 116.494 169.281 116.828 169.431 117.229C169.773 118.141 169.659 119.468 169.091 121.212L166.595 128.864L164.207 126.929ZM165.176 121.843L163.663 126.483L162.282 125.361L164.759 117.766C165.276 116.179 165.967 115.335 166.83 115.234C166.997 115.217 167.161 115.226 167.323 115.261L166.47 117.876C165.99 117.809 165.591 118.264 165.272 119.241L164.58 121.363L165.176 121.843Z" fill="#DC1D25"/>
</svg>
